<?xml version="1.0" standalone="no"?>
<!DOCTYPE svg PUBLIC "-//W3C//DTD SVG 20010904//EN"
 "http://www.w3.org/TR/2001/REC-SVG-20010904/DTD/svg10.dtd">
<svg version="1.0" xmlns="http://www.w3.org/2000/svg"
 width="3264.000000pt" height="3264.000000pt" viewBox="0 0 3264.000000 3264.000000"
 preserveAspectRatio="xMidYMid meet">
<metadata>
Created by potrace 1.14, written by Peter Selinger 2001-2017
</metadata>
<g transform="translate(0.000000,3264.000000) scale(0.100000,-0.100000)"
fill="#000000" stroke="none">
<path d="M15916 32473 c-1 -1 -61 -4 -133 -6 -72 -3 -136 -8 -141 -11 -6 -3
-12 -2 -14 4 -2 6 -15 7 -33 2 -17 -4 -60 -7 -97 -7 -38 0 -68 -2 -68 -5 0 -3
-28 -4 -62 -4 -35 1 -69 -3 -75 -9 -9 -6 -13 -6 -13 2 0 7 -4 9 -10 6 -5 -3
-49 -8 -97 -11 -49 -2 -106 -6 -128 -9 -22 -2 -76 -7 -120 -10 -150 -12 -164
-13 -174 -20 -6 -3 -11 -1 -11 5 0 6 -4 9 -9 6 -10 -7 -60 -15 -122 -21 -24
-2 -44 -4 -44 -5 0 -1 -27 -3 -60 -6 -33 -2 -76 -7 -95 -10 -19 -3 -55 -7 -80
-10 -42 -4 -85 -11 -85 -14 0 0 -27 -3 -60 -5 -33 -3 -71 -7 -85 -10 -34 -7
-121 -18 -142 -19 -10 0 -18 -3 -18 -6 0 -3 -10 -6 -22 -6 -51 -3 -105 -11
-114 -16 -5 -3 -17 -4 -26 -3 -10 2 -18 0 -18 -4 0 -4 -12 -6 -26 -6 -31 2
-147 -19 -163 -29 -6 -4 -11 -2 -11 4 0 7 -6 8 -17 2 -10 -6 -52 -16 -93 -23
-41 -7 -77 -13 -80 -14 -3 -1 -37 -7 -77 -14 -97 -17 -108 -19 -108 -21 0 -1
-9 -3 -20 -5 -30 -4 -72 -13 -196 -39 -62 -14 -117 -23 -121 -20 -4 3 -8 0 -8
-5 0 -6 -3 -10 -7 -9 -5 1 -28 -2 -53 -7 -25 -5 -48 -8 -52 -7 -5 1 -8 -2 -8
-7 0 -5 -8 -8 -17 -6 -10 1 -22 -1 -28 -5 -5 -4 -17 -7 -25 -7 -8 0 -44 -8
-80 -18 -73 -19 -109 -27 -127 -28 -7 0 -13 -4 -13 -9 0 -5 -4 -7 -9 -4 -5 3
-28 0 -52 -7 -24 -8 -47 -14 -51 -15 -5 -1 -10 -3 -13 -3 -3 -1 -9 -3 -15 -4
-5 -1 -11 -3 -12 -4 -2 -2 -14 -4 -28 -7 -14 -2 -32 -7 -40 -11 -8 -3 -19 -7
-25 -8 -41 -6 -135 -30 -135 -35 0 -3 -8 -6 -17 -7 -28 -3 -68 -10 -70 -13 -2
-1 -7 -4 -13 -5 -5 -1 -11 -3 -12 -5 -2 -1 -10 -3 -18 -5 -31 -8 -87 -24 -140
-39 -30 -9 -62 -18 -70 -20 -50 -13 -137 -39 -145 -44 -5 -4 -14 -7 -20 -9
-34 -7 -55 -13 -92 -26 -22 -9 -44 -13 -47 -10 -3 4 -6 0 -6 -7 0 -7 -3 -11
-6 -7 -4 3 -22 0 -40 -8 -19 -8 -37 -14 -39 -15 -6 0 -12 -2 -22 -5 -5 -1 -23
-6 -40 -10 -18 -4 -33 -11 -33 -15 0 -3 -6 -7 -12 -8 -21 -1 -42 -7 -53 -13
-14 -8 -68 -23 -77 -21 -5 1 -8 -3 -8 -9 0 -5 -4 -8 -8 -5 -5 3 -19 -1 -33 -8
-13 -7 -26 -12 -29 -13 -11 0 -86 -26 -105 -36 -11 -6 -31 -12 -44 -13 -13 -2
-29 -8 -34 -13 -6 -6 -17 -11 -25 -11 -8 0 -28 -6 -45 -14 -48 -21 -143 -57
-158 -60 -8 -2 -27 -8 -44 -15 -16 -7 -64 -26 -105 -43 -41 -16 -86 -35 -100
-40 -14 -6 -33 -13 -43 -15 -10 -1 -28 -10 -40 -18 -12 -7 -24 -14 -27 -14 -3
0 -18 -4 -33 -10 -16 -6 -30 -11 -33 -11 -2 0 -37 -15 -76 -33 -40 -18 -89
-39 -108 -46 -19 -7 -48 -19 -65 -27 -146 -68 -394 -177 -412 -181 -13 -3 -23
-10 -23 -15 0 -5 -4 -6 -10 -3 -5 3 -10 1 -10 -4 0 -6 -3 -10 -7 -9 -5 1 -23
-6 -40 -15 -18 -10 -33 -14 -33 -10 0 4 -7 -2 -15 -13 -8 -10 -15 -15 -15 -10
0 4 -11 1 -25 -8 -13 -9 -31 -16 -38 -16 -8 0 -20 -7 -27 -15 -7 -8 -19 -15
-27 -15 -8 0 -21 -7 -30 -15 -8 -8 -19 -13 -24 -10 -5 4 -9 1 -9 -5 0 -6 -4
-9 -9 -5 -5 3 -16 -2 -24 -10 -9 -8 -18 -15 -22 -15 -13 0 -94 -40 -100 -50
-3 -5 -15 -10 -26 -10 -10 0 -19 -4 -19 -8 0 -4 -16 -14 -36 -21 -19 -7 -38
-19 -40 -26 -3 -8 -12 -11 -20 -8 -8 3 -14 0 -14 -6 0 -6 -4 -10 -8 -9 -12 4
-82 -35 -82 -45 0 -4 -5 -5 -11 -2 -6 4 -17 -1 -25 -11 -9 -11 -12 -13 -9 -6
4 8 -10 3 -31 -10 -22 -13 -51 -30 -66 -37 -16 -8 -28 -18 -28 -23 0 -5 -4 -7
-9 -4 -4 3 -23 -6 -41 -19 -18 -13 -36 -22 -40 -20 -4 2 -16 -5 -28 -15 -12
-11 -28 -20 -35 -20 -8 0 -19 -6 -25 -13 -6 -7 -27 -19 -47 -27 -19 -7 -35
-17 -35 -20 0 -4 -19 -15 -42 -26 -24 -10 -47 -24 -51 -31 -4 -7 -17 -13 -27
-13 -11 0 -20 -4 -20 -10 0 -5 -7 -10 -15 -10 -8 0 -15 -4 -15 -9 0 -5 -11
-12 -24 -15 -14 -3 -31 -12 -38 -19 -7 -7 -38 -25 -67 -40 -30 -15 -51 -27
-45 -27 5 0 -5 -8 -23 -18 -92 -50 -133 -76 -133 -85 0 -6 -3 -8 -6 -4 -4 3
-25 -6 -48 -22 -22 -15 -57 -36 -76 -46 -19 -10 -37 -21 -40 -25 -3 -4 -26
-19 -52 -34 -27 -15 -48 -32 -48 -37 0 -5 -6 -9 -13 -9 -7 0 -23 -9 -35 -20
-12 -12 -22 -18 -22 -14 0 3 -15 -5 -34 -20 -19 -14 -40 -26 -46 -26 -6 0 -13
-6 -16 -13 -3 -8 -20 -20 -39 -27 -19 -8 -35 -17 -35 -20 0 -7 -105 -80 -115
-80 -3 0 -13 -7 -22 -16 -30 -26 -203 -144 -212 -144 -5 0 -11 -7 -15 -15 -3
-8 -12 -15 -21 -15 -8 0 -15 -4 -15 -10 0 -5 -4 -10 -10 -10 -9 0 -36 -19 -66
-48 -8 -7 -14 -11 -14 -7 0 4 -7 -1 -16 -10 -9 -9 -29 -24 -43 -33 -32 -21
-47 -32 -72 -54 -10 -10 -24 -18 -29 -18 -6 0 -10 -4 -10 -10 0 -5 -6 -10 -14
-10 -8 0 -16 -3 -18 -8 -1 -4 -23 -23 -48 -42 -25 -19 -48 -39 -52 -45 -4 -5
-8 -6 -8 -2 0 4 -11 -4 -25 -18 -14 -14 -29 -25 -33 -25 -4 0 -19 -11 -33 -23
-13 -13 -44 -37 -67 -52 -23 -15 -42 -31 -42 -36 0 -5 -12 -15 -27 -23 -16 -8
-42 -28 -60 -44 -18 -17 -53 -45 -78 -63 -25 -18 -45 -36 -45 -41 0 -4 -6 -8
-14 -8 -8 0 -16 -3 -18 -7 -1 -5 -32 -32 -68 -62 -36 -30 -64 -59 -62 -65 2
-6 0 -8 -4 -4 -6 7 -43 -21 -131 -97 -6 -5 -30 -26 -53 -45 -22 -19 -57 -50
-76 -67 -20 -18 -40 -33 -45 -33 -6 0 -7 -4 -4 -10 3 -5 2 -10 -4 -10 -6 0
-28 -18 -51 -40 -22 -21 -40 -36 -40 -33 0 3 -13 -7 -29 -23 -15 -16 -72 -69
-126 -119 -54 -49 -107 -99 -119 -110 -12 -11 -24 -19 -29 -17 -4 1 -7 -5 -7
-13 0 -8 -4 -15 -9 -15 -12 0 -601 -588 -601 -600 0 -6 -7 -10 -15 -10 -8 0
-15 -4 -15 -9 0 -4 -24 -34 -54 -65 -30 -31 -53 -56 -51 -56 2 0 -22 -26 -53
-58 -32 -32 -75 -78 -97 -103 -119 -136 -162 -184 -183 -205 -13 -13 -21 -24
-19 -24 3 0 -12 -17 -32 -37 -20 -21 -54 -60 -76 -87 -64 -78 -98 -118 -123
-143 -13 -13 -20 -23 -17 -23 3 0 -4 -11 -17 -24 -13 -13 -34 -38 -48 -55 -14
-17 -30 -37 -35 -44 -6 -7 -28 -34 -50 -62 -22 -27 -44 -55 -50 -61 -5 -7 -21
-26 -35 -44 -14 -18 -35 -43 -48 -56 -13 -13 -19 -24 -15 -24 4 0 3 -4 -3 -8
-5 -4 -23 -25 -39 -47 -17 -22 -32 -42 -35 -45 -3 -3 -59 -77 -125 -165 -66
-88 -124 -163 -130 -167 -7 -5 -7 -8 0 -8 6 0 6 -3 0 -8 -9 -6 -119 -154 -165
-222 -8 -12 -21 -28 -27 -36 -7 -7 -13 -15 -13 -18 0 -8 -94 -141 -102 -144
-4 -2 -8 -9 -8 -16 0 -7 -8 -21 -17 -32 -26 -29 -58 -77 -66 -96 -3 -10 -11
-18 -17 -18 -5 0 -10 -7 -10 -16 0 -9 -9 -25 -21 -35 -11 -9 -20 -20 -19 -24
1 -3 -31 -56 -71 -117 -41 -62 -76 -116 -79 -122 -3 -6 -17 -30 -32 -53 -16
-24 -28 -47 -28 -53 0 -5 -4 -10 -10 -10 -5 0 -10 -7 -10 -15 0 -8 -4 -15 -10
-15 -5 0 -10 -4 -10 -9 0 -12 -63 -115 -72 -119 -5 -2 -8 -9 -8 -16 0 -7 -9
-23 -20 -36 -11 -13 -20 -27 -20 -32 0 -8 -48 -86 -60 -98 -3 -3 -6 -12 -8
-20 -2 -8 -11 -23 -19 -32 -9 -10 -13 -18 -9 -18 4 0 0 -7 -8 -16 -9 -8 -16
-22 -16 -30 0 -8 -3 -14 -8 -14 -4 0 -18 -21 -31 -47 -14 -27 -33 -60 -43 -74
-9 -14 -15 -29 -11 -33 3 -3 1 -6 -5 -6 -7 0 -12 -7 -12 -15 0 -8 -4 -15 -10
-15 -5 0 -9 -3 -8 -7 2 -5 -12 -35 -31 -68 -19 -33 -32 -61 -30 -61 2 -1 -3
-10 -11 -20 -8 -11 -29 -46 -45 -79 -17 -33 -33 -62 -36 -65 -6 -6 -16 -31
-17 -44 0 -5 -4 -12 -9 -15 -4 -3 -19 -28 -33 -56 -14 -27 -42 -81 -63 -119
-20 -38 -37 -75 -37 -82 0 -8 -4 -14 -10 -14 -5 0 -10 -4 -10 -10 0 -16 -102
-225 -114 -232 -6 -4 -7 -8 -3 -8 4 0 2 -10 -5 -22 -7 -13 -11 -26 -10 -30 1
-5 -2 -8 -6 -8 -9 0 -37 -70 -34 -82 1 -5 -3 -8 -8 -8 -6 0 -10 -4 -10 -10 0
-5 -15 -41 -34 -79 -19 -38 -31 -72 -28 -75 3 -3 0 -6 -6 -6 -7 0 -11 -3 -10
-7 1 -5 -9 -30 -22 -58 -13 -27 -24 -52 -25 -55 -3 -9 -22 -53 -40 -95 -10
-22 -19 -42 -20 -45 -1 -3 -7 -18 -14 -35 -6 -16 -11 -34 -10 -39 0 -5 -3 -12
-8 -15 -14 -10 -44 -82 -38 -92 4 -5 2 -9 -4 -9 -5 0 -19 -26 -31 -57 -11 -32
-25 -67 -29 -78 -5 -11 -26 -63 -46 -115 -21 -52 -45 -113 -55 -135 -10 -22
-21 -51 -24 -65 -7 -25 -10 -32 -40 -105 -10 -23 -18 -47 -20 -55 -2 -8 -8
-26 -13 -40 -6 -14 -19 -50 -29 -80 -11 -30 -21 -57 -24 -60 -5 -5 -8 -15 -15
-50 -2 -8 -4 -16 -5 -17 -2 -2 -3 -6 -5 -10 -1 -5 -5 -16 -9 -25 -4 -9 -9 -22
-10 -30 -3 -12 -8 -27 -37 -99 -5 -14 -9 -30 -7 -35 1 -5 -6 -24 -15 -41 -10
-18 -15 -33 -11 -33 4 0 1 -6 -5 -14 -6 -8 -11 -18 -10 -22 1 -5 -3 -21 -9
-37 -7 -15 -14 -38 -16 -50 -3 -12 -14 -49 -26 -82 -12 -33 -24 -71 -26 -84
-3 -13 -10 -34 -16 -45 -6 -12 -11 -23 -11 -26 0 -3 -1 -9 -3 -15 -18 -56 -32
-115 -27 -115 3 0 0 -7 -7 -15 -7 -8 -9 -15 -5 -15 4 0 2 -6 -4 -14 -6 -8 -11
-18 -9 -22 1 -5 -7 -38 -19 -74 -12 -36 -24 -77 -27 -90 -2 -14 -11 -47 -20
-74 -8 -27 -14 -52 -14 -55 1 -3 -4 -19 -10 -34 -7 -15 -11 -31 -11 -35 1 -4
0 -10 -1 -14 -1 -5 -4 -12 -5 -18 -1 -5 -4 -12 -5 -15 -1 -3 -3 -13 -5 -22 -1
-10 -4 -25 -8 -33 -5 -15 -17 -63 -18 -77 0 -5 -5 -14 -11 -20 -6 -7 -8 -13
-6 -13 3 0 -1 -26 -9 -57 -8 -32 -17 -71 -20 -88 -8 -46 -11 -60 -13 -62 -2
-2 -4 -7 -5 -13 -1 -5 -3 -11 -5 -12 -1 -2 -3 -12 -5 -23 -12 -63 -23 -110
-25 -110 -2 0 -6 -20 -14 -65 -4 -19 -10 -48 -15 -65 -4 -16 -7 -38 -5 -47 1
-10 -2 -18 -6 -18 -5 0 -9 -8 -9 -17 0 -20 -17 -118 -21 -118 -3 0 -21 -97
-26 -135 -1 -14 -3 -25 -4 -25 -1 0 -3 -7 -5 -15 -10 -51 -17 -89 -20 -115 -2
-16 -4 -31 -5 -32 -3 -4 -5 -12 -14 -66 -4 -27 -10 -59 -12 -70 -8 -37 -15
-81 -18 -112 -2 -16 -6 -37 -9 -45 -3 -8 -8 -37 -11 -65 -3 -27 -8 -61 -11
-75 -3 -14 -8 -38 -10 -55 -2 -16 -7 -50 -10 -75 -4 -25 -8 -61 -10 -80 -2
-19 -4 -35 -6 -35 -1 0 -3 -16 -4 -35 -2 -19 -4 -36 -5 -37 -2 -2 -4 -16 -5
-33 -1 -16 -3 -31 -4 -32 -3 -4 -10 -62 -16 -118 -2 -25 -4 -45 -5 -45 -1 0
-3 -16 -5 -35 -2 -19 -6 -60 -10 -90 -4 -30 -8 -71 -10 -90 -6 -66 -15 -132
-20 -141 -3 -4 -1 -10 5 -14 6 -4 7 -12 3 -18 -4 -7 -8 -21 -9 -32 -5 -72 -16
-196 -19 -225 -4 -37 -14 -196 -20 -320 -2 -41 -5 -75 -6 -75 -1 0 -4 -57 -15
-340 -14 -342 -7 -1064 13 -1400 4 -66 7 -139 7 -162 0 -24 2 -43 5 -43 3 0 7
-35 7 -78 1 -42 4 -106 8 -142 14 -151 19 -217 20 -257 1 -24 3 -43 6 -43 3 0
5 -17 5 -38 0 -20 1 -41 4 -46 3 -6 6 -28 7 -50 1 -23 5 -61 8 -86 4 -25 9
-67 10 -95 2 -27 6 -63 9 -80 3 -16 8 -52 12 -80 3 -27 8 -61 10 -75 2 -14 6
-47 10 -75 3 -27 8 -61 10 -75 7 -41 17 -124 16 -142 0 -10 3 -18 7 -18 4 0 8
-15 8 -33 1 -17 4 -43 8 -57 5 -23 7 -41 22 -145 6 -46 12 -80 14 -80 1 0 4
-16 6 -35 9 -64 13 -85 14 -85 1 0 3 -11 6 -25 4 -28 15 -87 21 -110 1 -8 5
-28 8 -45 8 -52 15 -89 22 -115 6 -26 9 -39 16 -80 3 -14 9 -45 15 -70 6 -25
13 -58 16 -75 3 -16 8 -41 11 -55 3 -14 8 -36 11 -50 2 -14 7 -36 11 -50 11
-43 13 -54 15 -72 1 -10 5 -18 8 -18 3 0 6 -8 6 -17 1 -29 11 -76 23 -105 6
-16 9 -28 6 -28 -2 0 1 -15 6 -32 6 -18 12 -43 15 -55 2 -13 6 -33 8 -45 3
-13 14 -57 26 -98 12 -41 24 -85 26 -97 2 -12 8 -33 13 -45 5 -13 9 -27 10
-33 1 -5 7 -28 13 -50 6 -22 12 -44 12 -50 3 -21 19 -80 24 -90 4 -5 7 -14 8
-20 4 -24 64 -226 72 -242 5 -10 8 -23 5 -29 -2 -6 3 -23 11 -39 8 -16 13 -32
10 -37 -3 -4 0 -8 5 -8 6 0 10 -3 9 -7 -4 -18 15 -83 27 -93 8 -6 11 -18 9
-25 -3 -8 -2 -20 2 -27 5 -7 9 -15 10 -18 0 -3 6 -25 14 -50 7 -25 13 -48 12
-52 -1 -5 3 -8 9 -8 5 0 8 -4 5 -9 -4 -5 3 -29 13 -54 11 -25 17 -48 14 -51
-4 -3 0 -6 7 -6 7 0 11 -3 7 -6 -3 -3 13 -56 35 -117 22 -62 44 -125 48 -142
15 -53 54 -150 63 -156 5 -3 7 -8 6 -10 -5 -8 26 -99 34 -99 4 0 6 -3 4 -7 -3
-5 0 -19 6 -33 5 -14 12 -34 14 -45 2 -11 8 -24 13 -29 6 -6 10 -20 10 -32 0
-12 7 -25 16 -28 8 -3 12 -11 9 -16 -4 -6 -3 -16 2 -23 12 -15 68 -162 63
-162 -3 0 6 -18 20 -40 14 -22 24 -41 23 -42 -5 -6 30 -93 37 -93 3 0 6 -8 7
-18 1 -10 13 -43 27 -74 38 -82 49 -112 48 -120 -1 -5 3 -8 8 -8 5 0 9 -3 8
-7 -2 -9 8 -33 56 -136 20 -43 36 -85 36 -93 0 -8 5 -12 10 -9 6 3 10 -1 10
-9 0 -19 32 -90 43 -94 4 -2 4 -8 1 -13 -3 -6 1 -18 9 -27 8 -9 18 -28 22 -42
4 -14 14 -33 23 -43 8 -9 12 -17 9 -17 -6 0 72 -161 82 -170 3 -3 7 -11 9 -18
2 -13 73 -156 123 -252 13 -25 29 -48 34 -52 6 -4 7 -8 3 -8 -3 0 8 -28 26
-62 96 -182 119 -223 127 -226 5 -2 7 -7 4 -12 -3 -5 0 -14 7 -22 12 -12 69
-114 93 -165 5 -13 14 -23 18 -23 5 0 6 -4 3 -9 -3 -5 1 -14 9 -21 8 -7 15
-17 15 -22 0 -5 14 -29 30 -54 17 -24 29 -44 26 -44 -5 0 15 -33 57 -93 6 -10
12 -21 12 -25 1 -7 15 -32 61 -102 12 -19 28 -47 35 -62 7 -16 16 -28 21 -28
5 0 6 -4 3 -10 -3 -5 -2 -10 3 -10 5 0 15 -12 23 -27 7 -16 24 -42 36 -59 13
-17 20 -34 16 -37 -3 -4 -1 -7 5 -7 7 0 12 -6 12 -14 0 -8 4 -16 8 -18 4 -1
20 -24 35 -50 15 -26 33 -53 40 -60 6 -8 18 -24 25 -36 6 -12 18 -32 25 -44 6
-12 20 -31 30 -42 9 -11 17 -26 17 -33 0 -7 4 -13 8 -13 5 0 15 -12 23 -28 15
-30 51 -84 60 -92 3 -3 12 -16 18 -28 7 -13 22 -35 34 -49 12 -13 22 -30 22
-36 1 -7 7 -11 15 -9 8 2 12 0 8 -3 -7 -8 48 -97 64 -103 4 -2 8 -8 8 -12 0
-9 96 -148 129 -187 11 -13 17 -23 15 -23 -3 0 1 -6 8 -14 7 -7 20 -24 28 -36
8 -12 21 -28 28 -36 6 -7 12 -17 12 -23 0 -6 5 -11 10 -11 6 0 10 -8 10 -17 0
-9 3 -13 6 -10 4 4 14 -7 23 -23 9 -16 27 -42 41 -57 14 -16 36 -45 50 -66 14
-20 28 -37 33 -37 4 0 7 -6 7 -14 0 -8 3 -16 8 -18 4 -2 27 -30 52 -63 47 -63
77 -99 97 -121 7 -7 13 -15 13 -17 0 -5 42 -56 72 -88 10 -11 18 -22 18 -26 0
-5 15 -24 33 -44 17 -20 46 -54 64 -75 17 -22 39 -49 50 -61 10 -11 32 -38 49
-60 18 -21 48 -57 69 -80 20 -23 36 -44 36 -47 0 -3 17 -22 37 -44 77 -81 141
-152 136 -152 -3 0 68 -79 123 -135 12 -13 19 -26 16 -29 -4 -3 1 -6 10 -6 10
0 17 -4 17 -10 0 -5 29 -39 64 -75 36 -36 63 -65 61 -65 -2 0 23 -27 56 -60
33 -33 58 -60 55 -60 -2 0 12 -17 33 -38 20 -21 39 -37 42 -35 3 1 12 -9 19
-22 7 -13 17 -22 22 -19 4 3 8 0 8 -6 0 -12 383 -394 541 -540 44 -41 100 -93
123 -115 24 -22 73 -67 110 -100 69 -62 79 -70 186 -165 35 -30 68 -60 74 -65
6 -6 38 -33 71 -61 97 -80 118 -98 142 -121 13 -12 23 -20 23 -17 0 3 11 -5
24 -18 13 -13 33 -30 45 -38 11 -9 36 -30 56 -48 19 -18 35 -30 35 -27 0 5 7
-1 64 -52 14 -13 29 -23 35 -23 5 0 11 -7 15 -15 3 -8 12 -15 21 -15 8 0 15
-6 15 -14 0 -7 13 -19 29 -26 16 -6 32 -18 35 -26 3 -8 11 -14 18 -14 7 0 19
-9 26 -21 7 -12 16 -19 18 -16 3 2 15 -4 27 -14 41 -34 104 -84 127 -99 21
-14 33 -24 79 -63 12 -9 24 -17 27 -17 2 0 14 -9 26 -20 12 -11 28 -20 35 -20
8 0 11 -5 8 -10 -3 -6 1 -10 9 -10 9 0 16 -4 16 -8 0 -5 12 -15 27 -23 30 -15
55 -34 85 -61 10 -10 21 -18 26 -19 7 -1 54 -35 78 -57 8 -7 14 -11 14 -7 0 4
7 0 15 -7 33 -30 45 -38 55 -38 5 0 10 -4 10 -10 0 -5 6 -10 14 -10 8 0 16 -3
18 -8 2 -4 37 -30 78 -57 41 -28 83 -58 92 -68 9 -10 19 -18 22 -17 11 2 66
-34 66 -42 0 -4 5 -8 10 -8 6 0 51 -27 100 -60 49 -33 92 -60 95 -60 3 0 26
-15 52 -33 27 -19 56 -37 66 -40 9 -4 17 -11 17 -17 0 -5 9 -10 19 -10 11 0
21 -4 23 -8 2 -7 75 -54 150 -97 10 -5 55 -32 100 -60 46 -27 92 -54 103 -61
11 -6 36 -21 55 -32 19 -12 47 -27 63 -33 15 -6 27 -14 27 -18 0 -4 16 -13 35
-21 19 -8 35 -17 35 -22 0 -4 9 -8 21 -8 11 0 17 -5 14 -10 -5 -9 15 -15 37
-11 5 0 8 -3 8 -9 0 -5 7 -10 15 -10 8 0 15 -4 15 -8 0 -8 84 -52 96 -51 4 0
10 -3 13 -8 7 -9 28 -22 116 -68 105 -56 165 -85 171 -84 4 0 10 -3 13 -8 9
-12 111 -64 111 -56 0 4 7 -2 15 -13 8 -10 15 -15 15 -10 0 5 9 1 20 -9 11
-10 20 -15 20 -11 0 4 13 -2 29 -13 16 -12 36 -21 45 -21 9 0 16 -4 16 -10 0
-5 5 -10 11 -10 18 0 109 -44 109 -52 0 -5 5 -8 11 -8 6 0 59 -23 118 -52 58
-28 112 -51 119 -51 6 0 12 -3 12 -7 0 -4 18 -13 40 -20 22 -7 40 -17 40 -22
0 -4 3 -7 8 -6 4 1 34 -10 67 -26 92 -44 119 -55 135 -58 8 -2 18 -7 22 -12 3
-5 12 -11 20 -12 7 -1 24 -6 38 -12 14 -5 30 -10 35 -12 6 -1 17 -8 26 -15 8
-8 24 -16 35 -18 10 -2 40 -13 67 -25 100 -47 141 -64 152 -66 5 -1 32 -12 59
-24 27 -12 53 -22 57 -22 5 0 17 -4 27 -9 46 -23 204 -84 220 -84 6 0 12 -4
12 -9 0 -4 3 -7 8 -6 7 1 27 -5 67 -22 31 -14 69 -24 78 -22 4 1 7 -3 7 -10 0
-6 3 -9 6 -5 4 3 24 -3 45 -14 22 -11 39 -17 39 -13 0 4 7 0 17 -7 9 -8 19
-13 22 -13 8 2 10 1 116 -36 50 -18 95 -33 100 -34 6 -2 17 -6 25 -9 31 -12
176 -60 190 -62 8 -2 16 -4 18 -5 1 -2 5 -3 10 -5 8 -2 19 -6 72 -24 35 -12
53 -17 89 -25 11 -3 29 -10 40 -16 12 -6 21 -8 21 -4 0 3 7 1 15 -6 8 -7 15
-10 15 -7 0 3 16 -1 35 -9 19 -8 35 -12 35 -10 0 3 15 -1 34 -9 18 -8 37 -11
40 -7 4 3 10 1 14 -5 4 -7 22 -14 39 -18 18 -3 43 -9 57 -15 15 -5 26 -7 26
-4 0 4 6 2 13 -4 7 -6 24 -13 37 -15 14 -2 32 -7 40 -10 8 -4 24 -8 35 -10 11
-1 25 -6 32 -10 6 -4 23 -8 37 -9 14 -1 26 -5 26 -9 0 -4 7 -6 16 -5 9 1 41
-6 71 -16 31 -10 59 -15 64 -12 5 3 9 0 9 -6 0 -7 7 -10 15 -7 8 4 17 1 21 -4
3 -6 15 -9 25 -6 11 3 19 1 19 -4 0 -5 3 -8 8 -7 4 1 25 -4 47 -10 22 -6 51
-13 65 -16 14 -3 43 -10 65 -16 22 -5 56 -13 75 -16 19 -3 43 -10 52 -15 9 -5
21 -8 25 -7 4 1 33 -4 63 -12 30 -7 62 -14 70 -15 8 -1 22 -5 30 -8 13 -4 88
-20 155 -32 11 -2 20 -4 20 -5 0 -1 11 -4 25 -6 14 -2 36 -6 50 -8 14 -3 41
-8 60 -12 19 -4 43 -7 53 -8 9 0 17 -3 17 -6 0 -3 10 -6 23 -7 23 -2 124 -20
167 -31 14 -3 36 -6 50 -7 14 -2 32 -5 40 -8 28 -10 143 -26 151 -21 5 3 9 1
9 -4 0 -5 6 -9 13 -9 23 0 131 -15 137 -18 3 -2 27 -6 53 -9 26 -3 57 -8 69
-11 37 -7 89 -15 143 -20 59 -6 110 -13 110 -15 0 -1 18 -4 40 -6 84 -10 100
-12 100 -14 0 -1 16 -3 35 -5 19 -2 60 -6 90 -9 30 -4 73 -9 95 -11 22 -2 60
-7 85 -10 25 -3 70 -8 100 -11 30 -2 78 -7 105 -10 28 -2 77 -7 110 -9 126
-10 156 -13 161 -18 3 -3 19 -1 35 3 16 5 31 5 33 1 3 -4 29 -9 58 -10 29 -2
86 -4 126 -6 40 -1 76 -5 79 -8 3 -3 15 -2 28 3 13 5 26 6 30 2 4 -4 30 -8 58
-9 170 -5 342 -12 342 -13 0 -1 19 -2 43 -4 23 -1 42 1 42 6 0 4 12 3 26 -2
16 -7 32 -7 43 0 10 5 22 6 26 2 10 -10 525 -9 525 1 0 6 5 5 13 0 6 -5 39 -8
72 -7 286 11 422 16 490 20 44 2 115 5 158 6 42 2 77 5 77 8 0 3 33 6 73 6 39
1 106 4 147 8 41 4 95 9 120 11 25 3 74 7 110 10 36 3 83 7 105 10 22 2 67 7
100 10 33 4 74 8 90 10 17 1 30 4 30 5 0 1 20 3 45 5 25 1 63 6 85 9 22 3 60
8 85 12 25 3 56 7 70 9 14 3 48 7 75 10 28 3 61 7 74 10 13 2 49 7 80 11 31 3
65 8 76 11 36 8 60 12 105 17 25 4 59 9 75 12 17 4 40 7 53 7 12 1 22 5 22 10
0 4 5 5 10 2 9 -6 71 4 226 36 28 5 64 12 80 15 16 2 52 9 79 14 28 5 68 13
90 16 22 3 42 9 45 13 3 3 14 6 25 7 21 1 71 9 115 19 14 3 50 10 80 16 30 6
59 14 64 17 6 3 19 7 30 8 38 5 71 11 71 14 0 1 11 3 25 4 14 2 36 7 50 11 27
10 31 10 75 19 17 3 44 10 62 15 17 5 34 7 37 3 3 -3 6 -1 6 4 0 5 8 10 18 10
20 1 54 9 100 23 17 5 32 7 32 4 0 -3 7 1 17 8 9 8 17 13 17 11 1 -2 13 -1 27
3 14 3 34 8 45 10 10 2 20 4 22 5 4 4 15 7 60 15 23 4 42 11 42 14 0 4 13 8
30 9 16 1 42 7 57 14 15 6 35 12 43 14 24 4 133 34 150 41 8 3 20 7 25 9 29 8
63 17 87 21 16 3 25 10 21 16 -3 5 -1 7 4 4 6 -4 35 1 64 10 65 20 57 18 94
28 17 4 35 10 40 14 6 3 15 6 20 6 6 1 17 4 25 7 23 9 123 40 137 42 7 1 16 5
19 9 4 4 16 7 26 7 10 0 18 5 18 11 0 5 4 8 8 5 5 -3 32 4 60 14 29 11 52 17
52 13 0 -4 5 -2 12 5 7 7 20 12 30 12 10 0 18 4 18 8 0 4 8 8 18 9 9 1 31 7
47 14 34 14 54 20 73 21 6 1 12 5 12 10 0 5 4 7 9 3 5 -3 12 -1 16 5 4 6 10 8
15 5 5 -3 11 -1 15 5 3 5 15 10 26 10 10 0 19 5 19 11 0 5 4 8 9 4 9 -5 23 0
86 26 11 4 58 22 105 39 47 17 94 36 105 41 43 19 79 33 118 43 15 5 27 12 27
17 0 5 3 8 8 8 4 -1 9 0 12 1 3 1 12 3 21 5 9 1 34 11 55 20 43 19 64 27 112
45 17 7 32 17 32 22 0 5 4 7 9 3 6 -3 26 4 45 15 20 11 39 20 44 21 4 0 22 7
41 15 18 8 35 14 38 14 5 0 91 39 166 76 27 13 55 24 63 24 8 0 14 5 14 11 0
5 5 7 10 4 6 -3 10 -1 10 4 0 6 4 10 8 9 10 -4 115 44 123 55 3 5 9 8 13 7 12
-3 96 35 96 43 0 5 4 6 9 2 5 -3 17 2 25 11 9 8 16 13 16 10 0 -9 123 56 132
68 4 6 8 7 8 2 0 -4 11 -1 25 8 14 9 25 13 25 10 0 -4 9 1 20 11 11 10 20 14
20 10 0 -4 8 -1 18 8 9 8 26 17 37 19 11 1 22 6 25 9 3 4 68 39 145 79 77 40
141 76 143 81 2 4 10 5 18 2 7 -3 16 1 19 9 3 8 15 15 27 15 12 1 24 6 27 11
3 5 44 29 91 53 47 24 87 47 88 52 2 4 10 7 18 7 8 0 14 5 14 11 0 5 5 7 10 4
6 -3 10 -1 10 4 0 6 3 10 8 9 12 -3 62 24 62 34 0 4 7 8 15 8 18 0 51 18 79
42 10 10 23 15 28 12 4 -3 8 0 8 5 0 6 7 11 15 11 8 0 15 3 15 8 0 4 15 13 33
21 17 8 34 17 37 20 4 5 35 23 95 55 11 6 23 16 27 21 5 6 8 6 8 1 0 -6 7 -1
16 10 8 10 13 12 9 4 -4 -10 -2 -9 8 2 8 10 19 18 26 18 6 0 11 5 11 12 0 6 3
8 7 5 3 -4 20 4 37 16 17 13 39 26 49 30 9 3 17 11 17 18 0 6 6 9 14 6 8 -3
16 -3 18 1 2 4 35 27 73 51 39 24 73 49 77 55 4 6 8 8 8 3 0 -4 43 22 96 58
53 36 98 65 101 65 2 0 19 11 37 25 18 14 38 25 44 25 7 0 12 5 12 10 0 6 7
10 15 10 8 0 15 5 15 10 0 6 7 10 15 10 8 0 15 3 15 8 0 4 18 18 40 32 22 14
40 29 40 34 0 5 3 7 6 3 6 -6 17 1 54 35 10 9 20 14 23 12 2 -2 16 7 30 20 15
14 27 23 27 20 0 -3 7 1 15 8 34 31 45 38 45 31 1 -4 10 3 20 16 11 13 20 20
20 16 0 -3 6 0 14 7 7 7 24 20 36 28 12 8 28 21 36 28 7 6 17 12 23 12 6 0 11
5 11 10 0 6 7 10 15 10 8 0 15 5 15 10 0 6 8 14 18 17 9 4 22 12 28 17 6 6 22
18 34 26 12 8 29 21 36 28 8 7 14 10 14 7 0 -4 9 3 20 16 10 13 19 21 20 16 0
-6 37 23 76 61 7 6 16 12 19 12 4 0 29 18 55 40 26 22 51 40 54 40 3 0 14 8
24 17 21 20 37 33 97 78 22 16 47 36 56 45 9 8 29 25 45 37 16 12 40 31 54 42
28 23 27 23 90 71 25 19 52 41 60 50 8 9 38 34 65 55 28 22 62 51 77 65 15 14
33 30 40 35 13 9 121 102 178 152 14 12 43 39 65 59 22 20 58 50 79 65 21 16
35 29 30 29 -5 0 -3 4 4 8 15 10 148 132 238 218 35 34 64 60 64 58 0 -2 119
115 263 259 145 144 263 263 262 264 0 1 39 44 87 94 48 50 88 96 88 101 0 5
5 6 10 3 6 -3 10 1 10 9 0 9 7 16 15 16 8 0 15 5 15 11 0 7 16 27 35 46 19 19
35 39 35 44 0 6 5 7 10 4 6 -3 10 -3 10 2 0 4 14 24 31 43 37 43 117 133 159
180 79 87 115 133 112 142 -1 5 2 7 7 4 5 -3 17 6 26 21 18 27 59 75 103 120
13 12 20 23 17 23 -3 0 5 11 19 24 15 13 26 26 26 30 0 4 14 20 30 36 17 17
28 30 25 30 -4 0 0 6 7 13 7 8 29 33 48 57 19 24 43 52 53 62 9 10 15 18 12
18 -5 0 24 36 55 70 22 23 71 89 71 95 -1 2 9 15 22 29 35 37 82 99 81 105 -1
3 7 12 17 19 11 7 19 19 19 27 0 7 3 15 8 17 8 4 112 135 112 143 0 2 7 13 15
22 48 58 112 152 107 157 -3 3 0 6 5 6 6 0 24 20 40 45 15 25 31 45 36 45 4 0
7 6 7 14 0 8 7 22 16 31 23 22 64 84 64 95 0 4 3 10 8 12 10 4 52 65 52 77 0
5 7 11 15 15 8 3 15 12 15 20 0 7 7 17 16 20 8 3 12 10 9 16 -3 5 -2 10 4 10
5 0 13 9 16 21 4 12 16 30 26 40 10 10 19 26 19 34 0 8 4 15 8 15 4 0 23 26
42 58 19 31 38 62 43 67 28 37 95 145 89 145 -4 0 -2 4 4 8 9 6 34 45 107 167
7 11 21 34 32 50 11 17 29 47 40 68 11 20 23 37 27 37 5 0 8 6 8 13 0 6 10 28
22 47 12 19 22 37 23 40 0 3 8 16 17 30 38 59 96 160 109 189 8 17 18 31 22
31 5 0 6 4 3 9 -3 5 1 14 9 21 8 7 15 16 15 20 0 4 24 50 53 101 29 52 61 111
70 131 10 20 22 40 27 43 6 3 10 15 10 25 0 10 5 20 11 22 5 2 11 12 13 21 1
10 9 23 17 28 8 5 11 9 7 9 -7 0 45 105 64 127 6 7 7 13 4 13 -4 0 2 14 14 30
12 17 23 37 24 44 1 7 10 25 19 39 10 15 14 27 10 27 -5 0 -3 4 2 8 12 8 57
103 55 116 -1 5 4 12 12 17 7 5 13 12 14 16 1 15 48 108 58 115 6 4 8 8 3 8
-4 0 -1 14 8 30 9 17 12 30 8 30 -5 0 -1 5 7 10 8 5 15 13 16 17 1 10 15 44
50 118 15 33 29 62 29 65 4 15 41 85 47 88 4 2 4 10 1 18 -3 8 0 14 6 14 6 0
11 8 11 18 0 10 3 22 8 26 4 4 7 11 8 14 0 4 12 33 27 66 15 32 27 64 27 71 0
8 4 15 10 17 5 2 11 13 13 25 1 11 9 28 16 37 7 9 11 16 7 16 -4 0 0 10 8 23
8 12 15 24 15 27 -1 7 21 61 38 93 8 15 12 27 8 27 -3 0 1 13 9 29 9 16 12 31
9 35 -4 3 -1 6 5 6 9 0 26 50 22 66 -1 4 3 10 8 13 11 6 94 216 95 239 0 6 5
12 10 12 6 0 8 3 4 6 -3 4 0 19 9 35 8 16 12 29 8 29 -4 0 -2 6 3 13 6 6 22
48 37 92 15 44 32 88 37 98 5 10 7 22 4 27 -3 4 0 10 5 12 6 2 12 13 13 26 0
12 6 22 11 22 5 0 6 3 3 7 -4 3 -2 12 5 20 6 7 8 16 5 19 -3 3 1 17 8 31 8 15
12 30 9 35 -3 4 0 8 6 8 6 0 10 6 8 13 -1 6 3 22 10 35 7 12 10 22 6 22 -3 0
-2 6 4 13 6 7 13 24 16 37 2 14 14 51 25 83 11 31 17 57 14 57 -3 0 0 6 6 13
6 8 13 24 15 38 3 13 5 25 7 27 1 1 2 5 4 10 1 4 5 15 9 24 4 9 5 21 2 27 -3
5 -1 11 4 13 6 2 12 13 13 26 0 12 4 22 7 22 4 0 7 6 8 13 1 18 9 49 21 80 6
15 8 27 5 27 -4 0 -1 7 6 15 7 8 9 15 5 15 -4 0 -2 7 5 15 7 9 10 18 7 22 -3
3 0 18 8 34 9 16 14 32 13 36 -1 4 9 41 21 82 12 41 24 81 26 90 2 9 8 30 14
48 5 17 7 34 3 37 -3 3 0 6 7 6 7 0 9 5 6 10 -3 5 -3 16 2 23 4 6 8 17 9 22 5
27 14 65 28 114 8 30 13 58 10 63 -3 4 -1 8 4 8 5 0 13 19 17 42 5 24 9 45 10
48 4 15 19 77 20 90 1 8 5 22 8 30 4 8 8 26 11 40 13 73 20 96 30 109 9 12 8
13 -4 6 -12 -7 -13 -6 -3 6 10 12 17 43 28 114 2 11 4 20 5 20 2 0 5 16 14 60
3 17 8 39 10 50 26 120 38 174 41 195 3 14 8 41 13 60 4 19 8 44 7 55 0 11 3
22 6 25 6 5 14 45 23 125 2 17 5 30 6 30 3 0 10 38 15 75 2 19 4 36 6 38 1 1
3 11 4 22 1 11 4 21 5 23 1 1 4 16 5 32 3 31 11 80 22 130 3 17 7 44 9 60 1
17 6 50 10 75 5 25 8 57 9 73 0 15 3 27 6 27 3 0 6 12 6 28 2 28 7 76 18 147
19 123 22 152 20 172 -1 13 1 23 5 23 4 0 7 12 7 28 0 15 3 59 7 97 5 39 10
86 12 105 2 19 6 58 9 85 4 28 7 78 8 112 1 33 5 59 8 57 3 -1 6 14 6 34 1 35
5 97 18 252 3 36 7 103 9 149 3 46 7 85 10 88 2 3 1 16 -4 29 -5 13 -6 24 -1
24 4 0 8 26 9 58 1 76 11 357 12 357 7 0 4 103 -3 113 -6 7 -6 12 0 12 5 0 9
157 8 375 0 207 -4 375 -9 375 -5 0 -3 6 3 13 6 8 9 16 6 18 -2 3 -7 65 -10
139 -3 73 -7 136 -10 138 -3 3 0 11 6 19 6 7 8 13 3 13 -5 0 -8 17 -8 37 1 21
-4 44 -10 52 -8 11 -8 13 1 8 8 -5 10 5 7 35 -6 56 -15 199 -17 266 -1 28 -4
52 -7 52 -3 0 -6 24 -6 53 -3 114 -9 207 -14 207 -4 0 -7 38 -13 168 -1 17 -4
32 -7 32 -3 0 -6 24 -7 53 -1 28 -5 70 -8 92 -3 22 -8 63 -11 90 -2 28 -7 66
-10 85 -3 19 -7 51 -8 70 -2 19 -7 55 -11 80 -4 25 -9 56 -10 70 -11 95 -22
165 -25 165 -1 0 -3 16 -5 35 -2 19 -6 51 -10 70 -3 19 -8 51 -10 70 -2 19 -7
46 -10 60 -4 14 -8 34 -9 45 -2 11 -4 20 -5 20 -1 0 -4 20 -6 45 -2 25 -6 57
-9 73 -3 15 -8 39 -11 55 -3 15 -8 41 -12 57 -4 17 -8 39 -9 50 -1 11 -8 47
-14 80 -7 33 -13 71 -15 85 -2 14 -4 25 -5 25 -2 0 -5 13 -13 60 -4 17 -13 62
-21 100 -9 39 -18 81 -20 95 -3 14 -5 25 -6 25 -1 0 -3 11 -6 25 -10 58 -37
176 -42 185 -4 6 -7 21 -8 35 -1 14 -2 25 -3 25 -2 0 -5 11 -8 25 -7 39 -11
55 -13 55 -1 0 -4 11 -6 25 -10 52 -13 65 -14 65 -2 0 -10 34 -14 60 -2 11 -5
21 -6 23 -1 1 -4 7 -5 12 -1 6 -4 13 -5 18 -1 4 -2 11 -1 16 1 4 -4 14 -10 22
-6 8 -8 14 -4 14 4 0 2 6 -4 13 -6 8 -9 16 -6 19 3 2 -2 29 -11 58 -9 30 -17
61 -19 70 -2 9 -10 40 -19 68 -8 29 -12 52 -9 52 3 0 0 6 -6 13 -6 8 -8 17 -4
20 3 4 1 7 -4 7 -6 0 -10 8 -8 18 1 9 0 22 -4 27 -3 6 -7 19 -8 30 -2 10 -7
22 -11 25 -7 5 -8 9 -16 53 -3 12 -5 23 -7 25 -1 1 -2 5 -3 10 -16 69 -30 112
-36 112 -4 0 -6 8 -3 19 3 10 0 22 -6 25 -5 4 -8 13 -4 21 3 8 0 15 -6 15 -6
0 -10 3 -9 8 4 11 -24 105 -35 120 -5 6 -6 12 -2 12 4 0 2 7 -5 15 -7 8 -10
15 -6 15 5 0 -14 60 -41 130 -4 8 -5 19 -4 23 1 5 -5 23 -13 40 -12 28 -37 98
-42 120 -1 4 -3 10 -4 15 -1 4 -2 10 -1 15 0 4 -4 7 -10 7 -6 0 -9 6 -6 14 3
7 1 18 -4 23 -5 5 -11 18 -13 29 -5 25 -35 114 -46 139 -9 18 -36 95 -44 120
-3 10 -20 54 -33 85 -6 15 -7 18 -14 50 -2 8 -7 18 -12 21 -4 3 -9 14 -11 25
-2 10 -10 33 -16 49 -7 17 -15 39 -20 50 -4 11 -9 25 -10 30 -1 6 -5 15 -10
20 -4 6 -11 25 -15 43 -3 17 -11 32 -16 32 -5 0 -9 8 -9 18 0 10 -5 23 -12 30
-7 7 -9 12 -6 12 4 0 -4 25 -18 55 -13 31 -24 62 -24 70 0 8 -4 15 -9 15 -4 0
-14 20 -21 45 -7 25 -16 45 -20 45 -4 0 -7 6 -7 13 0 11 -17 52 -62 152 -10
22 -28 63 -39 90 -11 28 -31 73 -43 100 -13 28 -22 53 -21 58 1 4 -2 7 -8 7
-5 0 -15 18 -21 40 -7 22 -17 40 -22 40 -6 0 -8 3 -4 6 3 3 -6 27 -19 54 -13
26 -24 55 -24 65 0 9 -5 13 -10 10 -5 -3 -10 -2 -10 4 0 6 -14 41 -32 78 -17
38 -31 71 -30 76 1 4 -2 7 -7 7 -5 0 -12 14 -16 30 -4 17 -11 30 -16 30 -6 0
-7 5 -4 10 3 5 1 10 -6 10 -7 0 -9 3 -6 7 4 3 0 15 -10 25 -9 10 -13 18 -10
18 4 0 -2 15 -12 33 -10 17 -44 84 -77 147 -32 63 -62 117 -66 118 -5 2 -8 12
-8 23 0 10 -4 19 -10 19 -5 0 -9 3 -8 8 2 4 -16 42 -40 84 -23 42 -42 82 -42
88 0 5 -4 10 -10 10 -5 0 -10 9 -10 20 0 11 -4 20 -9 20 -5 0 -20 23 -32 50
-12 28 -25 50 -29 50 -3 0 -12 16 -19 35 -7 19 -16 35 -20 35 -4 0 -8 6 -8 13
0 8 -14 35 -32 60 -17 26 -29 47 -26 47 4 0 -1 7 -9 16 -9 8 -16 21 -16 28 0
7 -8 21 -18 32 -10 10 -26 35 -35 54 -21 42 -44 81 -80 137 -15 24 -27 47 -27
53 0 5 -4 10 -10 10 -5 0 -10 7 -10 15 0 8 -4 15 -10 15 -5 0 -10 7 -10 15 0
8 -5 15 -11 15 -5 0 -7 5 -4 10 3 6 2 10 -3 10 -5 0 -13 8 -16 18 -7 19 -10
24 -91 152 -32 52 -63 97 -67 98 -4 2 -8 10 -8 18 0 8 -4 14 -10 14 -5 0 -10
5 -10 11 0 6 -20 40 -45 76 -25 35 -45 66 -45 69 0 3 -11 20 -25 38 -14 18
-25 38 -25 44 0 7 -4 12 -8 12 -5 0 -24 24 -42 53 -19 28 -38 54 -42 55 -4 2
-8 9 -8 15 0 7 -20 38 -43 69 -23 32 -58 80 -77 108 -19 28 -40 57 -46 63 -6
7 -19 26 -29 42 -20 32 -31 46 -65 83 -11 12 -20 25 -19 28 1 9 -94 134 -103
134 -4 0 -7 4 -5 9 1 5 -10 23 -25 40 -16 17 -28 35 -28 41 0 5 -4 10 -8 10
-4 0 -15 12 -24 28 -9 15 -28 39 -42 54 -14 15 -26 30 -26 34 0 3 -12 20 -26
38 -14 17 -35 43 -47 59 -12 15 -33 40 -47 56 -14 16 -32 39 -40 51 -8 12 -26
35 -40 51 -14 16 -36 43 -50 60 -14 17 -30 37 -37 44 -7 7 -9 15 -6 19 4 3 -1
6 -10 6 -9 0 -16 3 -15 8 2 4 -6 17 -17 28 -11 12 -33 39 -50 59 -16 20 -41
49 -55 65 -14 15 -38 45 -55 66 -16 21 -43 52 -60 70 -16 18 -48 54 -70 80
-22 26 -54 62 -72 80 -17 17 -29 35 -26 38 4 3 -2 6 -12 6 -10 0 -16 3 -12 6
3 3 -9 21 -26 39 -18 18 -70 74 -117 126 -47 51 -104 112 -127 137 -24 24 -43
46 -43 48 0 12 -766 764 -779 764 -2 0 -23 19 -46 43 -64 64 -115 107 -125
107 -6 0 -10 7 -10 15 0 8 -4 15 -8 15 -11 0 -51 32 -87 70 -5 6 -21 20 -35
31 -14 11 -38 33 -55 47 -16 15 -57 50 -90 77 -60 51 -74 63 -118 103 -14 12
-27 22 -31 22 -3 0 -18 12 -34 28 -40 37 -93 82 -98 82 -4 0 -35 25 -58 45 -6
6 -34 29 -61 51 -28 21 -57 45 -65 52 -15 12 -136 106 -155 120 -6 4 -34 26
-62 50 -28 23 -55 42 -60 42 -5 0 -16 8 -25 18 -26 27 -46 42 -57 42 -5 0 -11
3 -13 8 -5 12 -86 72 -97 72 -6 0 -11 4 -11 8 0 4 -12 15 -27 24 -25 14 -43
28 -90 68 -7 5 -16 10 -21 10 -4 0 -17 8 -28 18 -31 28 -123 92 -133 92 -5 0
-12 7 -15 16 -4 9 -9 14 -12 11 -4 -3 -12 -1 -20 6 -21 19 -36 30 -84 62 -25
16 -48 34 -52 40 -4 5 -8 6 -8 2 0 -5 -7 -2 -15 5 -33 30 -45 38 -55 38 -6 0
-13 7 -16 15 -4 8 -9 13 -14 10 -4 -2 -16 5 -28 15 -12 11 -26 20 -32 20 -5 0
-10 5 -10 10 0 6 -6 10 -13 10 -7 0 -22 8 -33 18 -10 10 -33 24 -51 32 -17 8
-29 18 -27 22 3 4 0 8 -6 8 -6 0 -44 23 -86 50 -41 28 -78 50 -80 50 -3 0 -25
14 -49 30 -24 17 -48 30 -54 30 -6 0 -11 3 -11 8 0 7 -22 21 -72 44 -16 7 -28
16 -28 20 0 4 -7 8 -15 8 -8 0 -15 5 -15 10 0 6 -5 10 -11 10 -6 0 -23 8 -37
19 -15 10 -49 31 -77 45 -27 15 -63 36 -80 46 -16 11 -46 27 -65 37 -19 9 -37
19 -40 22 -3 4 -15 12 -27 19 -13 6 -33 18 -45 25 -13 6 -25 14 -28 17 -3 3
-25 14 -49 25 -24 11 -49 24 -55 30 -6 6 -36 23 -66 38 -30 15 -71 37 -90 48
-19 11 -44 25 -55 32 -11 6 -26 12 -33 13 -8 1 -22 10 -32 19 -10 9 -25 17
-33 19 -8 1 -21 6 -28 12 -32 22 -79 45 -79 37 0 -4 -4 -3 -8 3 -8 13 -242
134 -259 134 -6 0 -16 7 -23 15 -6 8 -15 14 -18 13 -4 -1 -22 6 -39 15 -18 10
-33 14 -33 10 0 -5 -4 -3 -8 3 -7 12 -117 66 -128 64 -4 -1 -10 3 -14 10 -4 6
-17 12 -28 13 -12 1 -22 4 -22 8 0 5 -70 38 -90 43 -3 1 -30 13 -60 28 -83 40
-174 80 -185 82 -5 1 -20 7 -31 14 -12 6 -24 8 -28 5 -3 -3 -6 -1 -6 5 0 7 -9
12 -20 12 -11 0 -20 5 -20 10 0 6 -3 9 -7 8 -8 -1 -24 4 -88 32 -22 10 -69 30
-105 44 -36 15 -74 31 -85 35 -11 5 -45 19 -75 31 -30 11 -64 25 -75 30 -11 4
-69 27 -130 50 -60 23 -119 46 -130 50 -49 20 -111 42 -127 45 -9 2 -30 11
-47 19 -17 9 -33 16 -36 16 -8 1 -105 34 -260 90 -33 12 -67 23 -75 25 -8 2
-16 4 -17 5 -2 2 -6 3 -10 4 -5 1 -14 5 -20 9 -7 5 -17 6 -22 3 -5 -4 -11 -2
-13 4 -1 5 -15 11 -30 12 -16 1 -28 5 -28 9 0 5 -29 14 -80 23 -3 1 -11 5 -17
9 -7 5 -17 5 -23 2 -5 -3 -10 -2 -10 2 0 5 -21 15 -47 22 -27 8 -74 22 -105
32 -32 11 -66 20 -75 22 -10 1 -23 6 -29 9 -6 4 -21 9 -35 12 -13 2 -64 16
-114 31 -49 15 -94 28 -100 29 -5 1 -35 10 -65 19 -30 9 -66 17 -80 19 -14 2
-30 7 -36 10 -6 4 -21 9 -35 12 -30 6 -88 20 -163 40 -33 9 -69 18 -80 21 -12
2 -21 4 -21 5 0 1 -7 3 -15 5 -38 8 -68 15 -104 24 -22 5 -44 8 -48 5 -4 -3
-8 -1 -8 4 0 5 -6 9 -12 10 -14 0 -51 9 -76 16 -16 5 -67 15 -102 21 -8 1 -22
5 -30 8 -8 4 -28 8 -45 11 -16 2 -30 5 -30 6 0 1 -8 3 -18 5 -10 2 -55 11
-100 21 -45 9 -92 18 -104 18 -13 1 -23 4 -23 8 0 4 -8 7 -17 7 -29 0 -77 7
-102 16 -13 4 -38 8 -55 10 -17 1 -39 6 -49 10 -10 4 -21 5 -24 1 -3 -3 -12
-1 -19 5 -8 6 -20 9 -28 6 -8 -3 -17 -3 -20 1 -4 3 -17 7 -29 9 -12 2 -35 6
-52 9 -16 3 -46 7 -65 9 -19 2 -35 4 -35 6 0 1 -9 3 -20 4 -17 2 -44 6 -130
20 -11 2 -31 6 -45 9 -14 4 -45 8 -70 11 -25 2 -45 5 -45 5 0 2 -11 3 -85 14
-25 3 -57 8 -72 11 -15 3 -53 8 -85 11 -32 3 -71 8 -88 10 -16 2 -50 7 -75 10
-25 3 -61 7 -80 9 -19 3 -57 7 -85 9 -27 3 -78 9 -113 14 -34 5 -76 8 -92 8
-17 -1 -30 1 -30 4 0 3 -28 6 -63 8 -34 2 -82 5 -107 7 -125 10 -211 17 -265
20 -33 2 -60 4 -60 5 0 1 -70 5 -253 14 -62 3 -118 8 -123 11 -5 4 -9 1 -9 -5
0 -6 -5 -8 -11 -4 -7 4 -66 9 -133 10 -67 2 -127 6 -133 9 -7 2 -13 -1 -13 -8
0 -8 -3 -8 -8 -2 -4 7 -142 10 -395 10 -214 0 -390 -1 -391 -2z"/>
</g>
</svg>
