<svg width="91" height="24" viewBox="0 0 91 24" fill="none" xmlns="http://www.w3.org/2000/svg">
<g clip-path="url(#clip0_10_539)">
<path d="M6.98709 17.1052C5.2524 18.8286 2.31449 18.8217 1.49401 16.5248C1.33337 16.0751 1.20493 15.6128 1.11047 15.141C0.724774 13.2145 0.922727 11.2178 1.6793 9.40311C2.43587 7.58851 3.71707 6.03752 5.3609 4.9463C7.00475 3.85508 8.93737 3.27264 10.9144 3.27264C12.8914 3.27264 14.824 3.85508 16.4678 4.9463C18.1117 6.03752 19.3929 7.58851 20.1494 9.40317C20.906 11.2178 21.1039 13.2145 20.7183 15.141C20.6238 15.6128 20.4954 16.0751 20.3347 16.5248C19.5142 18.8217 16.5763 18.8286 14.8416 17.1052L12.1639 14.4449C11.908 14.1907 11.9345 13.7715 12.005 13.419C12.0479 13.2048 12.0259 12.9826 11.9417 12.7807C11.8575 12.5789 11.715 12.4063 11.5322 12.2849C11.3493 12.1636 11.1343 12.0987 10.9144 12.0987C10.6944 12.0987 10.4795 12.1636 10.2966 12.2849C10.1137 12.4063 9.97116 12.5789 9.88698 12.7807C9.80281 12.9826 9.78079 13.2048 9.82372 13.419C9.8943 13.7715 9.92068 14.1907 9.66484 14.4449L6.98709 17.1052Z" fill="url(#paint0_linear_10_539)"/>
<path d="M29.0428 14.7209H31.7297V16.294H26.9916V7.92822H29.0428V14.7209Z" fill="#3A3B7B"/>
<path d="M35.395 16.3894C34.7393 16.3894 34.1475 16.2504 33.6197 15.9723C33.1 15.6943 32.6881 15.297 32.3842 14.7806C32.0884 14.2642 31.9404 13.6604 31.9404 12.9692C31.9404 12.286 32.0923 11.6861 32.3962 11.1697C32.7001 10.6454 33.1159 10.2442 33.6437 9.9661C34.1715 9.68804 34.7633 9.54901 35.419 9.54901C36.0747 9.54901 36.6665 9.68804 37.1943 9.9661C37.7221 10.2442 38.1379 10.6454 38.4418 11.1697C38.7456 11.6861 38.8976 12.286 38.8976 12.9692C38.8976 13.6524 38.7416 14.2562 38.4298 14.7806C38.1259 15.297 37.7061 15.6943 37.1703 15.9723C36.6425 16.2504 36.0507 16.3894 35.395 16.3894ZM35.395 14.6256C35.7868 14.6256 36.1187 14.4827 36.3906 14.1967C36.6705 13.9106 36.8104 13.5015 36.8104 12.9692C36.8104 12.4369 36.6745 12.0278 36.4026 11.7417C36.1387 11.4557 35.8108 11.3127 35.419 11.3127C35.0192 11.3127 34.6873 11.4557 34.4234 11.7417C34.1595 12.0198 34.0275 12.4289 34.0275 12.9692C34.0275 13.5015 34.1555 13.9106 34.4114 14.1967C34.6753 14.4827 35.0032 14.6256 35.395 14.6256Z" fill="#3A3B7B"/>
<path d="M42.1689 9.54901C42.6407 9.54901 43.0526 9.64435 43.4044 9.83503C43.7642 10.0257 44.0402 10.276 44.2321 10.5858V9.64435H46.2832V16.2821C46.2832 16.8939 46.1593 17.4461 45.9114 17.9386C45.6715 18.4391 45.2996 18.8364 44.7959 19.1303C44.3001 19.4243 43.6803 19.5713 42.9366 19.5713C41.945 19.5713 41.1413 19.3369 40.5256 18.8682C39.9099 18.4073 39.5579 17.7797 39.47 16.9852H41.4972C41.5611 17.2394 41.7131 17.4381 41.953 17.5811C42.1929 17.732 42.4888 17.8075 42.8407 17.8075C43.2645 17.8075 43.6003 17.6844 43.8482 17.4381C44.1041 17.1997 44.2321 16.8145 44.2321 16.2821V15.3407C44.0322 15.6505 43.7563 15.9048 43.4044 16.1034C43.0526 16.2941 42.6407 16.3894 42.1689 16.3894C41.6171 16.3894 41.1173 16.2504 40.6695 15.9723C40.2217 15.6863 39.8658 15.2851 39.602 14.7687C39.3461 14.2443 39.2181 13.6405 39.2181 12.9573C39.2181 12.274 39.3461 11.6742 39.602 11.1578C39.8658 10.6414 40.2217 10.2442 40.6695 9.9661C41.1173 9.68804 41.6171 9.54901 42.1689 9.54901ZM44.2321 12.9692C44.2321 12.4607 44.0882 12.0595 43.8003 11.7656C43.5204 11.4716 43.1765 11.3247 42.7687 11.3247C42.3608 11.3247 42.013 11.4716 41.7251 11.7656C41.4452 12.0516 41.3053 12.4488 41.3053 12.9573C41.3053 13.4657 41.4452 13.8709 41.7251 14.1728C42.013 14.4668 42.3608 14.6138 42.7687 14.6138C43.1765 14.6138 43.5204 14.4668 43.8003 14.1728C44.0882 13.8788 44.2321 13.4777 44.2321 12.9692Z" fill="#3A3B7B"/>
<path d="M50.4541 16.3894C49.7983 16.3894 49.2066 16.2504 48.6788 15.9723C48.159 15.6943 47.7471 15.297 47.4433 14.7806C47.1474 14.2642 46.9995 13.6604 46.9995 12.9692C46.9995 12.286 47.1514 11.6861 47.4553 11.1697C47.7592 10.6454 48.175 10.2442 48.7027 9.9661C49.2305 9.68804 49.8223 9.54901 50.478 9.54901C51.1338 9.54901 51.7256 9.68804 52.2533 9.9661C52.7811 10.2442 53.1969 10.6454 53.5008 11.1697C53.8047 11.6861 53.9566 12.286 53.9566 12.9692C53.9566 13.6524 53.8007 14.2562 53.4888 14.7806C53.185 15.297 52.7651 15.6943 52.2293 15.9723C51.7016 16.2504 51.1098 16.3894 50.4541 16.3894ZM50.4541 14.6256C50.8459 14.6256 51.1778 14.4827 51.4497 14.1967C51.7296 13.9106 51.8695 13.5015 51.8695 12.9692C51.8695 12.4369 51.7335 12.0278 51.4616 11.7417C51.1977 11.4557 50.8699 11.3127 50.478 11.3127C50.0782 11.3127 49.7463 11.4557 49.4824 11.7417C49.2186 12.0198 49.0866 12.4289 49.0866 12.9692C49.0866 13.5015 49.2146 13.9106 49.4705 14.1967C49.7344 14.4827 50.0622 14.6256 50.4541 14.6256Z" fill="#3A3B7B"/>
<path d="M55.7165 8.95313C55.3566 8.95313 55.0608 8.84985 54.8289 8.64329C54.605 8.42878 54.493 8.16661 54.493 7.85676C54.493 7.53898 54.605 7.2768 54.8289 7.07023C55.0608 6.85573 55.3566 6.74847 55.7165 6.74847C56.0684 6.74847 56.3563 6.85573 56.5802 7.07023C56.8121 7.2768 56.928 7.53898 56.928 7.85676C56.928 8.16661 56.8121 8.42878 56.5802 8.64329C56.3563 8.84985 56.0684 8.95313 55.7165 8.95313ZM56.7361 9.64433V16.294H54.6849V9.64433H56.7361Z" fill="#3A3B7B"/>
<path d="M59.9137 10.5858C60.1135 10.276 60.3895 10.0257 60.7415 9.83503C61.0935 9.64435 61.5054 9.54901 61.9771 9.54901C62.529 9.54901 63.0285 9.68804 63.4764 9.9661C63.9243 10.2442 64.2763 10.6414 64.5319 11.1578C64.7957 11.6742 64.9281 12.274 64.9281 12.9573C64.9281 13.6405 64.7957 14.2443 64.5319 14.7687C64.2763 15.2851 63.9243 15.6863 63.4764 15.9723C63.0285 16.2504 62.529 16.3894 61.9771 16.3894C61.513 16.3894 61.1017 16.2941 60.7415 16.1034C60.3895 15.9127 60.1135 15.6664 59.9137 15.3645V19.464H57.8627V9.64435H59.9137V10.5858ZM62.8409 12.9573C62.8409 12.4488 62.6968 12.0516 62.4087 11.7656C62.1287 11.4716 61.7813 11.3247 61.3654 11.3247C60.9576 11.3247 60.6096 11.4716 60.3215 11.7656C60.0421 12.0595 59.9021 12.4607 59.9021 12.9692C59.9021 13.4777 60.0421 13.8788 60.3215 14.1728C60.6096 14.4668 60.9576 14.6138 61.3654 14.6138C61.7732 14.6138 62.1212 14.4668 62.4087 14.1728C62.6968 13.8709 62.8409 13.4657 62.8409 12.9573Z" fill="#3A3B7B"/>
<path d="M68.3671 16.3894C67.7833 16.3894 67.2634 16.2901 66.8074 16.0915C66.352 15.8928 65.9918 15.6227 65.7281 15.2811C65.4643 14.9315 65.3162 14.5422 65.2842 14.1132H67.3116C67.3354 14.3436 67.4435 14.5303 67.6352 14.6733C67.8275 14.8163 68.0633 14.8878 68.3433 14.8878C68.5989 14.8878 68.7947 14.8402 68.9306 14.7448C69.0747 14.6416 69.1467 14.5104 69.1467 14.3516C69.1467 14.1609 69.0468 14.0219 68.8469 13.9345C68.6471 13.8391 68.323 13.7359 67.8751 13.6246C67.3953 13.5134 66.9956 13.3982 66.6755 13.279C66.356 13.152 66.0801 12.9573 65.8483 12.6951C65.6159 12.425 65.5003 12.0635 65.5003 11.6107C65.5003 11.2293 65.6043 10.8837 65.8123 10.5739C66.0278 10.2561 66.3397 10.0058 66.7475 9.82309C67.1635 9.64037 67.6555 9.54901 68.2231 9.54901C69.0625 9.54901 69.7224 9.75556 70.2022 10.1687C70.6902 10.5818 70.9702 11.13 71.0422 11.8133H69.1467C69.1147 11.5829 69.0108 11.4001 68.8348 11.265C68.6669 11.13 68.4432 11.0625 68.1632 11.0625C67.9233 11.0625 67.7392 11.1101 67.6114 11.2055C67.4836 11.2929 67.4197 11.416 67.4197 11.5749C67.4197 11.7656 67.5196 11.9086 67.7194 12.0039C67.9274 12.0993 68.2469 12.1946 68.6791 12.2899C69.1746 12.417 69.5783 12.5442 69.8903 12.6713C70.2022 12.7904 70.4741 12.989 70.7059 13.2671C70.9458 13.5372 71.0701 13.9027 71.0782 14.3635C71.0782 14.7528 70.9661 15.1024 70.7419 15.4122C70.5264 15.7141 70.2103 15.9525 69.7944 16.1272C69.3866 16.302 68.9109 16.3894 68.3671 16.3894Z" fill="#3A3B7B"/>
<path d="M78.5824 9.64429V16.294H76.5312V15.3883C76.3232 15.6822 76.0392 15.9206 75.6796 16.1033C75.3276 16.2781 74.936 16.3655 74.5038 16.3655C73.992 16.3655 73.5401 16.2543 73.1486 16.0318C72.7564 15.8014 72.4526 15.4717 72.2371 15.0427C72.021 14.6137 71.913 14.1092 71.913 13.5292V9.64429H73.952V13.2551C73.952 13.7 74.0681 14.0456 74.2999 14.2919C74.5317 14.5382 74.8436 14.6614 75.2358 14.6614C75.6354 14.6614 75.9514 14.5382 76.1832 14.2919C76.415 14.0456 76.5312 13.7 76.5312 13.2551V9.64429H78.5824Z" fill="#3A3B7B"/>
<path d="M88.2364 9.57275C89.0677 9.57275 89.7276 9.823 90.2156 10.3235C90.7111 10.824 90.9592 11.5192 90.9592 12.409V16.294H88.9202V12.6831C88.9202 12.2541 88.804 11.9244 88.5722 11.694C88.348 11.4556 88.0366 11.3365 87.6364 11.3365C87.2367 11.3365 86.9207 11.4556 86.6889 11.694C86.4653 11.9244 86.3531 12.2541 86.3531 12.6831V16.294H84.3136V12.6831C84.3136 12.2541 84.198 11.9244 83.9662 11.694C83.742 11.4556 83.43 11.3365 83.0303 11.3365C82.6307 11.3365 82.3147 11.4556 82.0829 11.694C81.8587 11.9244 81.7471 12.2541 81.7471 12.6831V16.294H79.6959V9.64426H81.7471V10.4784C81.9551 10.2004 82.2269 9.98188 82.5627 9.823C82.8985 9.65615 83.2784 9.57275 83.7019 9.57275C84.2061 9.57275 84.654 9.67998 85.0455 9.8945C85.4452 10.109 85.7571 10.4149 85.9814 10.8121C86.2131 10.4466 86.5292 10.1487 86.9288 9.91834C87.3285 9.68795 87.7647 9.57275 88.2364 9.57275Z" fill="#3A3B7B"/>
</g>
<defs>
<linearGradient id="paint0_linear_10_539" x1="20.0004" y1="8.23809" x2="2.2576" y2="8.23809" gradientUnits="userSpaceOnUse">
<stop stop-color="#64C2DB"/>
<stop offset="0.510417" stop-color="#7476ED"/>
<stop offset="1" stop-color="#E56F8C"/>
</linearGradient>
<clipPath id="clip0_10_539">
<rect width="90.0408" height="24" fill="white" transform="translate(0.918365 -6.10352e-05)"/>
</clipPath>
</defs>
</svg>
