<svg width="91" height="24" viewBox="0 0 91 24" fill="none" xmlns="http://www.w3.org/2000/svg">
<g clip-path="url(#clip0_10_567)">
<path d="M14.1288 15.8181H18.7077L7.36484 4.36359H2.78589L14.1288 15.8181Z" fill="#7476ED"/>
<path d="M9.37427 4.36359L20.9039 15.2727V4.36359H17.7838V7.80779L14.1436 4.36359L9.37427 4.36359Z" fill="#E56F8C"/>
<path d="M0.589844 4.90906V15.8181H3.55357V12.383L7.01121 15.8181H11.5704L0.589844 4.90906Z" fill="#64C2DB"/>
<path d="M27.9844 14.1771H30.7865V15.8181H25.8452V7.09082H27.9844V14.1771Z" fill="#3A3B7B"/>
<path d="M34.3306 15.8181C33.6579 15.8181 33.0507 15.674 32.5093 15.3857C31.976 15.0975 31.5536 14.6857 31.2418 14.1504C30.9383 13.6151 30.7865 12.9892 30.7865 12.2727C30.7865 11.5644 30.9423 10.9426 31.2541 10.4073C31.5659 9.86373 31.9925 9.44785 32.5339 9.1596C33.0754 8.87136 33.6825 8.72723 34.3552 8.72723C35.0279 8.72723 35.635 8.87136 36.1765 9.1596C36.7179 9.44785 37.1445 9.86373 37.4563 10.4073C37.7681 10.9426 37.9239 11.5644 37.9239 12.2727C37.9239 12.9809 37.7639 13.6068 37.4439 14.1504C37.1322 14.6857 36.7015 15.0975 36.1518 15.3857C35.6104 15.674 35.0033 15.8181 34.3306 15.8181ZM34.3306 13.9898C34.7326 13.9898 35.0731 13.8416 35.352 13.5451C35.6391 13.2486 35.7827 12.8245 35.7827 12.2727C35.7827 11.7209 35.6432 11.2968 35.3643 11.0003C35.0935 10.7038 34.7572 10.5556 34.3552 10.5556C33.945 10.5556 33.6045 10.7038 33.3338 11.0003C33.0631 11.2885 32.9277 11.7127 32.9277 12.2727C32.9277 12.8245 33.059 13.2486 33.3215 13.5451C33.5922 13.8416 33.9286 13.9898 34.3306 13.9898Z" fill="#3A3B7B"/>
<path d="M40.9048 8.72723C41.3814 8.72723 41.7975 8.82582 42.1529 9.02298C42.5165 9.22015 42.7952 9.47895 42.9891 9.79933V8.82582H45.0612V15.6897C45.0612 16.3223 44.936 16.8932 44.6855 17.4026C44.4432 17.9201 44.0675 18.3309 43.5586 18.6349C43.0577 18.9389 42.4316 19.0909 41.6804 19.0909C40.6786 19.0909 39.8667 18.8485 39.2447 18.3638C38.6226 17.8873 38.2672 17.2383 38.1783 16.4168H40.2262C40.2908 16.6797 40.4443 16.885 40.6867 17.0329C40.9291 17.189 41.2279 17.2671 41.5834 17.2671C42.0116 17.2671 42.3508 17.1397 42.6013 16.885C42.8598 16.6386 42.9891 16.2401 42.9891 15.6897V14.7162C42.7871 15.0366 42.5084 15.2995 42.1529 15.5049C41.7975 15.702 41.3814 15.8006 40.9048 15.8006C40.3474 15.8006 39.8425 15.6569 39.3901 15.3693C38.9377 15.0735 38.5782 14.6587 38.3116 14.1247C38.0531 13.5825 37.9238 12.9581 37.9238 12.2516C37.9238 11.5451 38.0531 10.9249 38.3116 10.3908C38.5782 9.85687 38.9377 9.44607 39.3901 9.15854C39.8425 8.871 40.3474 8.72723 40.9048 8.72723ZM42.9891 12.2639C42.9891 11.7382 42.8437 11.3233 42.5528 11.0193C42.2701 10.7153 41.9227 10.5633 41.5107 10.5633C41.0987 10.5633 40.7473 10.7153 40.4565 11.0193C40.1737 11.3151 40.0323 11.7258 40.0323 12.2516C40.0323 12.7774 40.1737 13.1964 40.4565 13.5086C40.7473 13.8125 41.0987 13.9645 41.5107 13.9645C41.9227 13.9645 42.2701 13.8125 42.5528 13.5086C42.8437 13.2046 42.9891 12.7897 42.9891 12.2639Z" fill="#3A3B7B"/>
<path d="M49.4307 15.8181C48.8098 15.8181 48.2494 15.674 47.7496 15.3857C47.2574 15.0975 46.8673 14.6857 46.5796 14.1504C46.2994 13.6151 46.1593 12.9892 46.1593 12.2727C46.1593 11.5644 46.3032 10.9426 46.5909 10.4073C46.8787 9.86373 47.2725 9.44785 47.7723 9.1596C48.2721 8.87136 48.8325 8.72723 49.4534 8.72723C50.0744 8.72723 50.6348 8.87136 51.1346 9.1596C51.6344 9.44785 52.0282 9.86373 52.316 10.4073C52.6038 10.9426 52.7477 11.5644 52.7477 12.2727C52.7477 12.9809 52.6 13.6068 52.3046 14.1504C52.0169 14.6857 51.6193 15.0975 51.1119 15.3857C50.6121 15.674 50.0517 15.8181 49.4307 15.8181ZM49.4307 13.9898C49.8018 13.9898 50.1161 13.8416 50.3735 13.5451C50.6386 13.2486 50.7712 12.8245 50.7712 12.2727C50.7712 11.7209 50.6424 11.2968 50.3849 11.0003C50.135 10.7038 49.8246 10.5556 49.4534 10.5556C49.0749 10.5556 48.7606 10.7038 48.5107 11.0003C48.2607 11.2885 48.1358 11.7127 48.1358 12.2727C48.1358 12.8245 48.257 13.2486 48.4993 13.5451C48.7492 13.8416 49.0597 13.9898 49.4307 13.9898Z" fill="#3A3B7B"/>
<path d="M54.676 8.26757C54.2703 8.26757 53.9367 8.16133 53.6752 7.94887C53.4229 7.72824 53.2966 7.45858 53.2966 7.13988C53.2966 6.81302 53.4229 6.54335 53.6752 6.33089C53.9367 6.11026 54.2703 5.99994 54.676 5.99994C55.0726 5.99994 55.3972 6.11026 55.6496 6.33089C55.911 6.54335 56.0418 6.81302 56.0418 7.13988C56.0418 7.45858 55.911 7.72824 55.6496 7.94887C55.3972 8.16133 55.0726 8.26757 54.676 8.26757ZM55.8254 8.9785V15.8181H53.513V8.9785H55.8254Z" fill="#3A3B7B"/>
<path d="M59.0524 9.81092C59.2392 9.48708 59.4963 9.22549 59.8243 9.02618C60.1522 8.82688 60.5365 8.72723 60.9765 8.72723C61.4913 8.72723 61.9573 8.87256 62.3746 9.1632C62.7924 9.45385 63.1204 9.86909 63.3591 10.4088C63.6053 10.9486 63.7282 11.5756 63.7282 12.2897C63.7282 13.0039 63.6053 13.635 63.3591 14.1831C63.1204 14.7229 62.7924 15.1422 62.3746 15.4411C61.9573 15.7318 61.4913 15.8772 60.9765 15.8772C60.5441 15.8772 60.1598 15.7775 59.8243 15.5782C59.4963 15.3789 59.2392 15.1215 59.0524 14.8059V19.0909H57.1398V8.82688H59.0524V9.81092ZM61.7819 12.2897C61.7819 11.7583 61.6477 11.343 61.3792 11.0441C61.1183 10.7368 60.7936 10.5832 60.4061 10.5832C60.0256 10.5832 59.7014 10.7368 59.4329 11.0441C59.1721 11.3514 59.0416 11.7707 59.0416 12.3022C59.0416 12.8336 59.1721 13.253 59.4329 13.5603C59.7014 13.8676 60.0256 14.0211 60.4061 14.0211C60.7866 14.0211 61.1108 13.8676 61.3792 13.5603C61.6477 13.2447 61.7819 12.8212 61.7819 12.2897Z" fill="#3A3B7B"/>
<path d="M67.4905 15.8181C66.8818 15.8181 66.3403 15.7152 65.8654 15.5093C65.3899 15.3034 65.0147 15.0234 64.7401 14.6693C64.4648 14.3069 64.3105 13.9033 64.2772 13.4586H66.3906C66.4154 13.6974 66.5279 13.891 66.7282 14.0392C66.9278 14.1875 67.1741 14.2616 67.4657 14.2616C67.7325 14.2616 67.9364 14.2122 68.0786 14.1134C68.2286 14.0063 68.3036 13.8704 68.3036 13.7057C68.3036 13.508 68.199 13.3639 67.9908 13.2733C67.7821 13.1745 67.4445 13.0674 66.978 12.9521C66.4777 12.8368 66.0608 12.7174 65.7275 12.5939C65.3941 12.4621 65.1067 12.2603 64.8647 11.9885C64.6233 11.7086 64.5023 11.3338 64.5023 10.8644C64.5023 10.4691 64.6106 10.1108 64.8272 9.78961C65.0523 9.46021 65.3778 9.20078 65.8025 9.01136C66.2363 8.82194 66.7487 8.72723 67.3404 8.72723C68.2159 8.72723 68.9038 8.94136 69.4036 9.36962C69.9124 9.79786 70.204 10.3661 70.279 11.0744H68.3036C68.2698 10.8355 68.1615 10.6461 67.9781 10.5061C67.8033 10.3661 67.5698 10.2961 67.2781 10.2961C67.0283 10.2961 66.8365 10.3455 66.7028 10.4444C66.5696 10.5349 66.5031 10.6626 66.5031 10.8273C66.5031 11.025 66.6072 11.1732 66.8153 11.272C67.0319 11.3709 67.3659 11.4697 67.816 11.5685C68.3327 11.7003 68.7538 11.8321 69.0787 11.9639C69.4036 12.0874 69.6873 12.2933 69.9287 12.5815C70.1792 12.8616 70.3081 13.2403 70.3165 13.718C70.3165 14.1216 70.1998 14.484 69.9662 14.8051C69.7412 15.1181 69.412 15.3652 68.9788 15.5463C68.5535 15.7275 68.0574 15.8181 67.4905 15.8181Z" fill="#3A3B7B"/>
<path d="M77.4539 9.27264V15.7485H75.4275V14.8665C75.2222 15.1528 74.9418 15.3849 74.5863 15.5628C74.2388 15.733 73.8518 15.8181 73.4252 15.8181C72.9195 15.8181 72.4728 15.7098 72.0857 15.4932C71.6987 15.2688 71.3988 14.9477 71.1855 14.5299C70.9722 14.1121 70.8655 13.6208 70.8655 13.056V9.27264H72.8799V12.7891C72.8799 13.2224 72.9946 13.5589 73.2234 13.7988C73.4527 14.0386 73.7606 14.1585 74.1477 14.1585C74.5427 14.1585 74.8547 14.0386 75.084 13.7988C75.3134 13.5589 75.4275 13.2224 75.4275 12.7891V9.27264H77.4539Z" fill="#3A3B7B"/>
<path d="M87.2939 9.27264C88.1453 9.27264 88.8208 9.51636 89.3199 10.0038C89.8279 10.4912 90.0816 11.1682 90.0816 12.0347V15.8181H87.9938V12.3016C87.9938 11.8838 87.8756 11.5628 87.6379 11.3384C87.4086 11.1063 87.0895 10.9902 86.6802 10.9902C86.2708 10.9902 85.9476 11.1063 85.71 11.3384C85.4812 11.5628 85.3666 11.8838 85.3666 12.3016V15.8181H83.2788V12.3016C83.2788 11.8838 83.1606 11.5628 82.9229 11.3384C82.6936 11.1063 82.3746 10.9902 81.9652 10.9902C81.5558 10.9902 81.2326 11.1063 80.995 11.3384C80.7663 11.5628 80.6516 11.8838 80.6516 12.3016V15.8181H78.5519V9.34228H80.6516V10.1547C80.8643 9.88387 81.1423 9.6711 81.4863 9.51636C81.8303 9.35388 82.2189 9.27264 82.6526 9.27264C83.1683 9.27264 83.627 9.37709 84.028 9.58599C84.4374 9.79489 84.7564 10.0928 84.9857 10.4796C85.2234 10.1237 85.5466 9.83358 85.9559 9.60921C86.3653 9.38483 86.8115 9.27264 87.2939 9.27264Z" fill="#3A3B7B"/>
</g>
<defs>
<clipPath id="clip0_10_567">
<rect width="90.0408" height="24" fill="white" transform="translate(0.0407715 -6.10352e-05)"/>
</clipPath>
</defs>
</svg>
