<svg width="91" height="24" viewBox="0 0 91 24" fill="none" xmlns="http://www.w3.org/2000/svg">
<g clip-path="url(#clip0_10_527)">
<path d="M1.39471 17.3683L1.39472 6.38354L6.92305 9.43486V14.3474L11.3458 16.819L15.7684 14.3474V9.43486L21.2968 6.38354V17.3683L11.3458 22.8606L1.39471 17.3683Z" fill="#192657"/>
<path fill-rule="evenodd" clip-rule="evenodd" d="M4.15889 7.90927L1.39471 6.38359L11.3458 0.891235L21.2968 6.38359L18.5326 7.90927V15.9952L11.3458 20.1145L4.15889 15.9952L4.15889 7.90927ZM18.2332 8.07455L15.7684 9.4349V9.40439L11.3458 6.93281L6.92305 9.40439V9.4349L4.45834 8.07455V15.8262L11.3458 19.7739L18.2332 15.8262V8.07455Z" fill="url(#paint0_linear_10_527)"/>
<path d="M26.5951 16.5001V7.27295H28.3465V14.9183H32.5923V16.5001H26.5951Z" fill="#192657"/>
<path d="M36.3736 16.6847C35.719 16.6847 35.1308 16.5529 34.6089 16.2892C34.0871 16.0256 33.6758 15.6433 33.375 15.1425C33.0743 14.6416 32.9239 14.0396 32.9239 13.3366V13.1256C32.9239 12.4226 33.0743 11.8207 33.375 11.3198C33.6758 10.8189 34.0871 10.4366 34.6089 10.173C35.1308 9.90931 35.719 9.77753 36.3736 9.77753C37.0282 9.77753 37.6164 9.90931 38.1383 10.173C38.6601 10.4366 39.0714 10.8189 39.3722 11.3198C39.6729 11.8207 39.8233 12.4226 39.8233 13.1256V13.3366C39.8233 14.0396 39.6729 14.6416 39.3722 15.1425C39.0714 15.6433 38.6601 16.0256 38.1383 16.2892C37.6164 16.5529 37.0282 16.6847 36.3736 16.6847ZM36.3736 15.2084C36.8866 15.2084 37.3112 15.0458 37.6473 14.7206C37.9835 14.3867 38.1515 13.9121 38.1515 13.297V13.1652C38.1515 12.5501 37.9835 12.0799 37.6473 11.7548C37.3201 11.4209 36.8955 11.2539 36.3736 11.2539C35.8606 11.2539 35.436 11.4209 35.0999 11.7548C34.7637 12.0799 34.5957 12.5501 34.5957 13.1652V13.297C34.5957 13.9121 34.7637 14.3867 35.0999 14.7206C35.436 15.0458 35.8606 15.2084 36.3736 15.2084Z" fill="#192657"/>
<path d="M40.4509 13.2575V13.0466C40.4509 12.3611 40.588 11.7767 40.8622 11.2934C41.1364 10.8013 41.4991 10.4278 41.9502 10.173C42.4102 9.90931 42.9099 9.77753 43.4495 9.77753C44.051 9.77753 44.5065 9.883 44.8161 10.0939C45.1257 10.3048 45.3513 10.5245 45.4927 10.753H45.7316V9.96205H47.3768V17.6602C47.3768 18.1083 47.2441 18.4642 46.9788 18.7279C46.7134 19.0003 46.3596 19.1365 45.9173 19.1365H41.5123V17.6865H45.3336C45.5812 17.6865 45.7051 17.5547 45.7051 17.2911V15.5906H45.4662C45.3778 15.7312 45.2539 15.8762 45.0947 16.0256C44.9355 16.1662 44.7232 16.2848 44.4579 16.3816C44.1925 16.4782 43.8564 16.5266 43.4495 16.5266C42.9099 16.5266 42.4102 16.3991 41.9502 16.1442C41.4991 15.8806 41.1364 15.5071 40.8622 15.0238C40.588 14.5317 40.4509 13.943 40.4509 13.2575ZM43.9271 15.0766C44.4401 15.0766 44.8692 14.914 45.2141 14.5888C45.5591 14.2637 45.7316 13.8067 45.7316 13.218V13.0861C45.7316 12.4885 45.5591 12.0316 45.2141 11.7152C44.878 11.3901 44.449 11.2275 43.9271 11.2275C43.4141 11.2275 42.9851 11.3901 42.6402 11.7152C42.2952 12.0316 42.1227 12.4885 42.1227 13.0861V13.218C42.1227 13.8067 42.2952 14.2637 42.6402 14.5888C42.9851 14.914 43.4141 15.0766 43.9271 15.0766Z" fill="#192657"/>
<path d="M51.7645 16.6847C51.1099 16.6847 50.5217 16.5529 49.9998 16.2892C49.478 16.0256 49.0667 15.6433 48.7659 15.1425C48.4652 14.6416 48.3148 14.0396 48.3148 13.3366V13.1256C48.3148 12.4226 48.4652 11.8207 48.7659 11.3198C49.0667 10.8189 49.478 10.4366 49.9998 10.173C50.5217 9.90931 51.1099 9.77753 51.7645 9.77753C52.4191 9.77753 53.0073 9.90931 53.5292 10.173C54.051 10.4366 54.4623 10.8189 54.7631 11.3198C55.0639 11.8207 55.2142 12.4226 55.2142 13.1256V13.3366C55.2142 14.0396 55.0639 14.6416 54.7631 15.1425C54.4623 15.6433 54.051 16.0256 53.5292 16.2892C53.0073 16.5529 52.4191 16.6847 51.7645 16.6847ZM51.7645 15.2084C52.2775 15.2084 52.7021 15.0458 53.0382 14.7206C53.3744 14.3867 53.5425 13.9121 53.5425 13.297V13.1652C53.5425 12.5501 53.3744 12.0799 53.0382 11.7548C52.711 11.4209 52.2864 11.2539 51.7645 11.2539C51.2515 11.2539 50.8269 11.4209 50.4908 11.7548C50.1547 12.0799 49.9866 12.5501 49.9866 13.1652V13.297C49.9866 13.9121 50.1547 14.3867 50.4908 14.7206C50.8269 15.0458 51.2515 15.2084 51.7645 15.2084Z" fill="#192657"/>
<path d="M56.1603 16.5001V9.96197H57.8321V16.5001H56.1603ZM56.9961 9.19746C56.6954 9.19746 56.4389 9.10081 56.2266 8.90746C56.0232 8.71411 55.9215 8.45926 55.9215 8.14295C55.9215 7.82658 56.0232 7.57173 56.2266 7.37838C56.4389 7.18508 56.6954 7.08838 56.9961 7.08838C57.3058 7.08838 57.5623 7.18508 57.7657 7.37838C57.9692 7.57173 58.0709 7.82658 58.0709 8.14295C58.0709 8.45926 57.9692 8.71411 57.7657 8.90746C57.5623 9.10081 57.3058 9.19746 56.9961 9.19746Z" fill="#192657"/>
<path d="M59.0876 19.1365V9.96205H60.7329V10.753H60.9718C61.1219 10.4981 61.3561 10.274 61.6751 10.0807C61.9935 9.87856 62.449 9.77753 63.0416 9.77753C63.5724 9.77753 64.0632 9.90931 64.514 10.173C64.9654 10.4278 65.3279 10.8057 65.6022 11.3066C65.8764 11.8075 66.0135 12.4139 66.0135 13.1256V13.3366C66.0135 14.0484 65.8764 14.6547 65.6022 15.1556C65.3279 15.6566 64.9654 16.0388 64.514 16.3024C64.0632 16.5573 63.5724 16.6847 63.0416 16.6847C62.6432 16.6847 62.3071 16.6364 62.0329 16.5397C61.7675 16.4518 61.5509 16.3376 61.3832 16.197C61.2237 16.0476 61.0954 15.8982 60.9983 15.7488H60.7594V19.1365H59.0876ZM62.5372 15.2347C63.0592 15.2347 63.4883 15.0721 63.8243 14.747C64.1691 14.4131 64.3416 13.9297 64.3416 13.297V13.1652C64.3416 12.5325 64.1691 12.0535 63.8243 11.7284C63.4794 11.3945 63.0504 11.2275 62.5372 11.2275C62.0241 11.2275 61.595 11.3945 61.2502 11.7284C60.9053 12.0535 60.7329 12.5325 60.7329 13.1652V13.297C60.7329 13.9297 60.9053 14.4131 61.2502 14.747C61.595 15.0721 62.0241 15.2347 62.5372 15.2347Z" fill="#192657"/>
<path d="M69.6845 16.6847C68.8265 16.6847 68.1232 16.5002 67.5747 16.1311C67.0269 15.762 66.6949 15.2347 66.5796 14.5493L68.1191 14.1538C68.1809 14.4614 68.2827 14.7031 68.424 14.8788C68.5746 15.0546 68.7559 15.182 68.9683 15.2611C69.189 15.3314 69.4279 15.3666 69.6845 15.3666C70.0735 15.3666 70.3613 15.3006 70.5473 15.1688C70.7326 15.0282 70.8256 14.8568 70.8256 14.6547C70.8256 14.4526 70.7374 14.2988 70.5602 14.1934C70.3837 14.0791 70.1006 13.9869 69.711 13.9166L69.3397 13.8506C68.8795 13.7628 68.4593 13.6441 68.0791 13.4947C67.6989 13.3366 67.3935 13.1213 67.1634 12.8489C66.9339 12.5764 66.8185 12.2249 66.8185 11.7943C66.8185 11.144 67.0575 10.6475 67.5353 10.3048C68.0126 9.95328 68.6411 9.77753 69.4191 9.77753C70.1536 9.77753 70.7638 9.94012 71.2499 10.2653C71.7366 10.5904 72.055 11.0166 72.2057 11.5439L70.6532 12.0184C70.5826 11.6845 70.4366 11.4472 70.2154 11.3066C70.0029 11.166 69.7375 11.0957 69.4191 11.0957C69.1007 11.0957 68.8577 11.1528 68.6894 11.267C68.5216 11.3725 68.4375 11.5219 68.4375 11.7152C68.4375 11.9261 68.5258 12.0843 68.7029 12.1898C68.8795 12.2864 69.1184 12.3611 69.4191 12.4139L69.7905 12.4798C70.286 12.5676 70.7326 12.6863 71.1311 12.8356C71.5377 12.9763 71.8561 13.1828 72.0862 13.4552C72.3251 13.7188 72.4446 14.0791 72.4446 14.5361C72.4446 15.2216 72.1921 15.7532 71.6878 16.1311C71.1929 16.5002 70.5249 16.6847 69.6845 16.6847Z" fill="#192657"/>
<path d="M75.8197 16.6056C75.3071 16.6056 74.8558 16.4913 74.4668 16.2629C74.0866 16.0256 73.79 15.7005 73.5775 15.2874C73.3657 14.8744 73.2592 14.3999 73.2592 13.8638V9.96204H74.9311V13.732C74.9311 14.2241 75.0506 14.5932 75.2895 14.8392C75.5367 15.0853 75.8862 15.2083 76.3376 15.2083C76.8502 15.2083 77.2486 15.0414 77.5317 14.7075C77.8148 14.3647 77.956 13.8902 77.956 13.2838V9.96204H79.6279V16.5002H77.9825V15.6433H77.7441C77.6376 15.8631 77.4387 16.0783 77.1468 16.2892C76.8549 16.5002 76.4124 16.6056 75.8197 16.6056Z" fill="#192657"/>
<path d="M80.8914 16.5002V9.96204H82.5363V10.6739H82.7752C82.89 10.4542 83.0807 10.2653 83.3455 10.107C83.6109 9.94012 83.9605 9.85663 84.3942 9.85663C84.8627 9.85663 85.2387 9.94889 85.5218 10.1334C85.8049 10.3092 86.0214 10.542 86.1721 10.832H86.4104C86.5611 10.5509 86.7735 10.318 87.0478 10.1334C87.322 9.94889 87.711 9.85663 88.2154 9.85663C88.622 9.85663 88.9892 9.9445 89.3164 10.1203C89.6525 10.2872 89.9179 10.5464 90.1127 10.898C90.3157 11.2407 90.4175 11.6757 90.4175 12.203V16.5002H88.7456V12.3216C88.7456 11.9613 88.6532 11.6933 88.4672 11.5175C88.2813 11.333 88.0206 11.2407 87.6845 11.2407C87.3044 11.2407 87.0077 11.3637 86.7953 11.6098C86.5923 11.847 86.4905 12.1898 86.4905 12.638V16.5002H84.8185V12.3216C84.8185 11.9613 84.7255 11.6933 84.5402 11.5175C84.3542 11.333 84.0935 11.2407 83.7569 11.2407C83.3767 11.2407 83.0807 11.3637 82.8682 11.6098C82.6646 11.847 82.5628 12.1898 82.5628 12.638V16.5002H80.8914Z" fill="#192657"/>
</g>
<defs>
<linearGradient id="paint0_linear_10_527" x1="4.15889" y1="5.16306" x2="19.0854" y2="5.16306" gradientUnits="userSpaceOnUse">
<stop stop-color="#64C2DB"/>
<stop offset="0.307292" stop-color="#7476ED"/>
<stop offset="0.604167" stop-color="#C994DF"/>
<stop offset="1" stop-color="#E56F8C"/>
</linearGradient>
<clipPath id="clip0_10_527">
<rect width="90.0408" height="24" fill="white" transform="translate(0.877533 -6.10352e-05)"/>
</clipPath>
</defs>
</svg>
