<?xml version="1.0" encoding="UTF-8"?>
<!DOCTYPE svg PUBLIC "-//W3C//DTD SVG 1.1//EN" "http://www.w3.org/Graphics/SVG/1.1/DTD/svg11.dtd">
<!-- Creator: CorelDRAW -->
<svg xmlns="http://www.w3.org/2000/svg" xml:space="preserve" width="66.1458mm" height="66.1458mm" version="1.1" style="shape-rendering:geometricPrecision; text-rendering:geometricPrecision; image-rendering:optimizeQuality; fill-rule:evenodd; clip-rule:evenodd"
viewBox="0 0 6614.58 6614.58"
 xmlns:xlink="http://www.w3.org/1999/xlink"
 xmlns:xodm="http://www.corel.com/coreldraw/odm/2003">
 <defs>
  <style type="text/css">
   <![CDATA[
    .str0 {stroke:#373435;stroke-width:20;stroke-miterlimit:22.9256}
    .str1 {stroke:#282829;stroke-width:20;stroke-miterlimit:22.9256}
    .fil0 {fill:#282829}
   ]]>
  </style>
 </defs>
 <g id="Layer_x0020_1">
  <metadata id="CorelCorpID_0Corel-Layer"/>
  <path class="fil0 str0" d="M4240.3 1968.75l720.46 0 321.31 -605.26 -344.72 -657.94 -593.73 0 -774.41 0 -11.48 20.64 -11.34 -20.64 -742.24 0 -768.33 0 -693.92 1263.2 -431.56 785.65 -80.39 146.34 -242.19 440.88 354.14 675.99 379.33 724.04 6.33 0 402.12 -724.04 355.37 0 439.18 0 1348.91 0 335.28 -631.62 -330.89 -631.59 -659.38 0 -786.88 0 436.35 -785.65 598.3 0 183.79 0 590.59 0zm1040.62 3464.42l384.06 -691.52 -746.36 0 -1426.51 0 -669.87 1263.2 2141.15 0 317.53 -571.68zm-3154.4 -691.52l-454.01 0 -183 321.17 224.82 429.17 268.7 512.86 835.17 0 670.56 -1263.2 -1362.24 0z"/>
  <polygon class="fil0 str0" points="3492.11,4741.64 2822.24,6004.85 4963.4,6004.85 5280.92,5433.17 5664.99,4741.64 4918.62,4741.64 "/>
  <polygon class="fil0 str0" points="3492.11,4741.64 2822.24,6004.85 4963.4,6004.85 5280.92,5433.17 5664.99,4741.64 4918.62,4741.64 "/>
  <polygon class="fil0 str0" points="3492.11,4741.64 2822.24,6004.85 4963.4,6004.85 5280.92,5433.17 5664.99,4741.64 4918.62,4741.64 "/>
  <polygon class="fil0 str0" points="3492.11,4741.64 2822.24,6004.85 4963.4,6004.85 5280.92,5433.17 5664.99,4741.64 4918.62,4741.64 "/>
  <path class="fil0 str0" d="M4918.62 4741.64l746.37 0 -384.07 691.53 -317.52 571.68 -2141.16 0 669.87 -1263.21 1426.51 0zm42.13 -2772.88l-720.44 0 -590.59 0 -183.81 0 -598.29 0 -436.34 785.64 786.87 0 659.37 0 330.91 631.6 -335.29 631.61 -1348.91 0 -439.19 0 -355.36 0 -402.13 724.03 -6.32 0 -379.32 -724.03 -354.15 -675.99 242.18 -440.88 80.41 -146.34 431.55 -785.64 693.92 -1263.21 768.33 0 742.23 0 11.36 20.64 11.47 -20.64 774.41 0 593.75 0 344.69 657.94 -321.31 605.27zm-1471.98 2772.88l-670.58 1263.21 -835.17 0 -268.7 -512.86 -224.81 -429.16 182.99 -321.19 454.02 0 1362.25 0z"/>
  <polygon class="fil0 str0" points="5664.99,4741.64 4918.62,4741.64 3492.11,4741.64 2822.24,6004.85 4963.4,6004.85 5280.92,5433.17 "/>
  <path class="fil0 str0" d="M4918.62 4741.64l746.37 0 -384.07 691.53 -317.52 571.68 -2141.16 0 669.87 -1263.21 1426.51 0zm-1045.48 -724.03l-1348.91 0 -439.19 0 -355.36 0 -402.13 724.03 -6.32 0 -379.32 -724.03 -354.15 -675.99 242.18 -440.88 80.41 -146.34 431.55 -785.64 693.92 -1263.21 768.33 0 742.23 0 11.36 20.64 11.47 -20.64 774.41 0 593.75 0 344.69 657.94 -321.31 605.27 -720.44 0 -590.59 0 -183.81 0 -598.29 0 -436.34 785.64 786.87 0 659.37 0 330.91 631.6 -335.29 631.61zm-1746.62 724.03l1362.25 0 -670.58 1263.21 -835.17 0 -268.7 -512.86 -224.81 -429.16 182.99 -321.19 454.02 0z"/>
  <polygon class="fil0 str0" points="5664.99,4741.64 4918.62,4741.64 3492.11,4741.64 2822.24,6004.85 4963.4,6004.85 5280.92,5433.17 "/>
  <polygon class="fil0 str0" points="2818.19,6004.85 3488.77,4741.64 2126.52,4741.64 1672.5,4741.64 1489.51,5062.83 1714.32,5491.99 1983.02,6004.85 "/>
  <polygon class="fil0 str0" points="2818.19,6004.85 3488.77,4741.64 2126.52,4741.64 1672.5,4741.64 1489.51,5062.83 1714.32,5491.99 1983.02,6004.85 "/>
  <polygon class="fil0 str0" points="2818.19,6004.85 3488.77,4741.64 2126.52,4741.64 1672.5,4741.64 1489.51,5062.83 1714.32,5491.99 1983.02,6004.85 "/>
  <polygon class="fil0 str0" points="2818.19,6004.85 3488.77,4741.64 2126.52,4741.64 1672.5,4741.64 1489.51,5062.83 1714.32,5491.99 1983.02,6004.85 "/>
  <polygon class="fil0 str0" points="2818.19,6004.85 3488.77,4741.64 2126.52,4741.64 1672.5,4741.64 1489.51,5062.83 1714.32,5491.99 1983.02,6004.85 "/>
  <polygon class="fil0 str0" points="3492.11,4741.64 2822.24,6004.85 4963.4,6004.85 5280.92,5433.17 5664.99,4741.64 4918.62,4741.64 "/>
  <polygon class="fil0 str0" points="2818.19,6004.85 3488.77,4741.64 2126.52,4741.64 1672.5,4741.64 1489.51,5062.83 1714.32,5491.99 1983.02,6004.85 "/>
  <polygon class="fil0 str0" points="2085.04,4017.61 2524.23,4017.61 3873.14,4017.61 4208.43,3386 3877.52,2754.4 3218.15,2754.4 2431.28,2754.4 2867.62,1968.76 3465.91,1968.76 3649.72,1968.76 4240.31,1968.76 4960.75,1968.76 5282.06,1363.49 4937.37,705.55 4343.62,705.55 3569.21,705.55 3557.74,726.19 3546.38,705.55 2804.15,705.55 2035.82,705.55 1341.9,1968.76 910.35,2754.4 829.94,2900.74 587.76,3341.62 941.91,4017.61 1321.23,4741.64 1327.55,4741.64 1729.68,4017.61 "/>
  <polygon class="fil0 str0" points="3492.11,4741.64 2822.24,6004.85 4963.4,6004.85 5280.92,5433.17 5664.99,4741.64 4918.62,4741.64 "/>
  <polygon class="fil0 str1" points="2818.19,6004.85 3488.77,4741.64 2126.52,4741.64 1672.5,4741.64 1489.51,5062.83 1714.32,5491.99 1983.02,6004.85 "/>
  <path class="fil0 str1" d="M3492.11 4741.64l1426.51 0 746.37 0 -384.07 691.53 -317.52 571.68 -2141.16 0 669.87 -1263.21zm-1819.61 0l454.02 0 1362.25 0 -670.58 1263.21 -835.17 0 -268.7 -512.86 -224.81 -429.16 182.99 -321.19zm851.73 -724.03l-439.19 0 -355.36 0 -402.13 724.03 -6.32 0 -379.32 -724.03 -354.15 -675.99 242.18 -440.88 80.41 -146.34 431.55 -785.64 693.92 -1263.21 768.33 0 742.23 0 11.36 20.64 11.47 -20.64 774.41 0 593.75 0 344.69 657.94 -321.31 605.27 -720.44 0 -590.59 0 -183.81 0 -598.29 0 -436.34 785.64 786.87 0 659.37 0 330.91 631.6 -335.29 631.61 -1348.91 0z"/>
  <path class="fil0 str1" d="M5280.92 5433.17l-317.52 571.68 -2141.16 0 669.87 -1263.21 1426.51 0 746.37 0 -384.07 691.53zm-1792.15 -691.53l-670.58 1263.21 -835.17 0 -268.7 -512.86 -224.81 -429.16 182.99 -321.19 454.02 0 1362.25 0zm-964.54 -724.03l-439.19 0 -355.36 0 -402.13 724.03 -6.32 0 -379.32 -724.03 -354.15 -675.99 242.18 -440.88 80.41 -146.34 431.55 -785.64 693.92 -1263.21 768.33 0 742.23 0 11.36 20.64 11.47 -20.64 774.41 0 593.75 0 344.69 657.94 -321.31 605.27 -720.44 0 -590.59 0 -183.81 0 -598.29 0 -436.34 785.64 786.87 0 659.37 0 330.91 631.6 -335.29 631.61 -1348.91 0z"/>
  <path class="fil0 str1" d="M5280.92 5433.17l-317.52 571.68 -2141.16 0 669.87 -1263.21 1426.51 0 746.37 0 -384.07 691.53zm-2462.73 571.68l-835.17 0 -268.7 -512.86 -224.81 -429.16 182.99 -321.19 454.02 0 1362.25 0 -670.58 1263.21zm-293.96 -1987.24l-439.19 0 -355.36 0 -402.13 724.03 -6.32 0 -379.32 -724.03 -354.15 -675.99 242.18 -440.88 80.41 -146.34 431.55 -785.64 693.92 -1263.21 768.33 0 742.23 0 11.36 20.64 11.47 -20.64 774.41 0 593.75 0 344.69 657.94 -321.31 605.27 -720.44 0 -590.59 0 -183.81 0 -598.29 0 -436.34 785.64 786.87 0 659.37 0 330.91 631.6 -335.29 631.61 -1348.91 0z"/>
  <path class="fil0 str1" d="M5280.92 5433.17l-317.52 571.68 -2141.16 0 669.87 -1263.21 1426.51 0 746.37 0 -384.07 691.53zm-2462.73 571.68l-835.17 0 -268.7 -512.86 -224.81 -429.16 182.99 -321.19 454.02 0 1362.25 0 -670.58 1263.21zm-293.96 -1987.24l-439.19 0 -355.36 0 -402.13 724.03 -6.32 0 -379.32 -724.03 -354.15 -675.99 242.18 -440.88 80.41 -146.34 431.55 -785.64 693.92 -1263.21 768.33 0 742.23 0 11.36 20.64 11.47 -20.64 774.41 0 593.75 0 344.69 657.94 -321.31 605.27 -720.44 0 -590.59 0 -183.81 0 -598.29 0 -436.34 785.64 786.87 0 659.37 0 330.91 631.6 -335.29 631.61 -1348.91 0z"/>
  <path class="fil0 str1" d="M5280.92 5433.17l-317.52 571.68 -2141.16 0 669.87 -1263.21 1426.51 0 746.37 0 -384.07 691.53zm-2462.73 571.68l-835.17 0 -268.7 -512.86 -224.81 -429.16 182.99 -321.19 454.02 0 1362.25 0 -670.58 1263.21zm-293.96 -1987.24l-439.19 0 -355.36 0 -402.13 724.03 -6.32 0 -379.32 -724.03 -354.15 -675.99 242.18 -440.88 80.41 -146.34 431.55 -785.64 693.92 -1263.21 768.33 0 742.23 0 11.36 20.64 11.47 -20.64 774.41 0 593.75 0 344.69 657.94 -321.31 605.27 -720.44 0 -590.59 0 -183.81 0 -598.29 0 -436.34 785.64 786.87 0 659.37 0 330.91 631.6 -335.29 631.61 -1348.91 0z"/>
 </g>
</svg>
