<svg width="91" height="24" viewBox="0 0 91 24" fill="none" xmlns="http://www.w3.org/2000/svg">
<g clip-path="url(#clip0_10_580)">
<path d="M26.3017 16.7152H32.7458V14.7868H28.5921V7.52332H26.3017V16.7152Z" fill="#2F234F"/>
<path d="M36.5638 15.4295C35.6451 15.4295 35.1663 14.6325 35.1663 13.4369C35.1663 12.2413 35.6451 11.4314 36.5638 11.4314C37.4825 11.4314 37.9743 12.2413 37.9743 13.4369C37.9743 14.6325 37.4825 15.4295 36.5638 15.4295ZM36.5767 16.9208C38.7118 16.9208 40.1094 15.4167 40.1094 13.4369C40.1094 11.4571 38.7118 9.953 36.5767 9.953C34.4546 9.953 33.0312 11.4571 33.0312 13.4369C33.0312 15.4167 34.4546 16.9208 36.5767 16.9208Z" fill="#2F234F"/>
<path d="M43.805 18.9907C44.7885 18.9907 45.6554 18.7721 46.2377 18.2579C46.7683 17.7822 47.1177 17.0623 47.1177 16.0724V10.1331H45.099V10.8401H45.0731C44.6849 10.2874 44.0897 9.94025 43.2098 9.94025C41.5664 9.94025 40.4277 11.303 40.4277 13.2313C40.4277 15.2497 41.8123 16.3553 43.3004 16.3553C44.1026 16.3553 44.6073 16.0339 44.9955 15.5968H45.0473V16.2524C45.0473 17.0495 44.672 17.5123 43.7791 17.5123C43.0804 17.5123 42.731 17.2166 42.6145 16.8695H40.57C40.7771 18.2451 41.9805 18.9907 43.805 18.9907ZM43.7921 14.7997C43.0027 14.7997 42.4851 14.1569 42.4851 13.167C42.4851 12.1643 43.0027 11.5215 43.7921 11.5215C44.672 11.5215 45.1378 12.2671 45.1378 13.1542C45.1378 14.0798 44.7108 14.7997 43.7921 14.7997Z" fill="#2F234F"/>
<path d="M51.2683 15.4295C50.3495 15.4295 49.8708 14.6325 49.8708 13.4369C49.8708 12.2413 50.3495 11.4314 51.2683 11.4314C52.187 11.4314 52.6787 12.2413 52.6787 13.4369C52.6787 14.6325 52.187 15.4295 51.2683 15.4295ZM51.2812 16.9208C53.4163 16.9208 54.814 15.4167 54.814 13.4369C54.814 11.4571 53.4163 9.953 51.2812 9.953C49.1591 9.953 47.7357 11.4571 47.7357 13.4369C47.7357 15.4167 49.1591 16.9208 51.2812 16.9208Z" fill="#2F234F"/>
<path d="M55.4298 16.7152H57.539V10.133H55.4298V16.7152ZM55.4298 9.22027H57.539V7.52332H55.4298V9.22027Z" fill="#2F234F"/>
<path d="M58.454 18.8878H60.5632V16.0339H60.5891C61.0032 16.5867 61.6113 16.9209 62.4654 16.9209C64.1993 16.9209 65.351 15.5582 65.351 13.4242C65.351 11.4444 64.277 9.94025 62.5171 9.94025C61.6113 9.94025 60.9643 10.3388 60.5114 10.9301H60.4726V10.1331H58.454V18.8878ZM61.9219 15.3011C61.0161 15.3011 60.4985 14.5683 60.4985 13.5013C60.4985 12.4343 60.9643 11.6243 61.8831 11.6243C62.7889 11.6243 63.2159 12.37 63.2159 13.5013C63.2159 14.6197 62.7242 15.3011 61.9219 15.3011Z" fill="#2F234F"/>
<path d="M68.7855 16.9209C70.5194 16.9209 71.8005 16.1753 71.8005 14.7354C71.8005 13.0513 70.4289 12.7557 69.2643 12.5628C68.4232 12.4085 67.6726 12.3443 67.6726 11.8815C67.6726 11.4701 68.0738 11.2772 68.5914 11.2772C69.1737 11.2772 69.5748 11.4572 69.6525 12.0486H71.5935C71.4899 10.7502 70.4806 9.94025 68.6043 9.94025C67.0386 9.94025 65.7446 10.6602 65.7446 12.0486C65.7446 13.5913 66.9739 13.8998 68.1255 14.0927C69.0055 14.2469 69.8077 14.3112 69.8077 14.9026C69.8077 15.3268 69.4066 15.5582 68.7725 15.5582C68.0738 15.5582 67.6338 15.2368 67.5562 14.5812H65.5634C65.6281 16.0339 66.8445 16.9209 68.7855 16.9209Z" fill="#2F234F"/>
<path d="M74.6651 16.908C75.5839 16.908 76.1662 16.5481 76.645 15.9053H76.6838V16.7152H78.7024V10.1331H76.5932V13.8098C76.5932 14.594 76.1532 15.1339 75.4286 15.1339C74.7557 15.1339 74.4322 14.7354 74.4322 14.0155V10.1331H72.3359V14.4526C72.3359 15.9181 73.1382 16.908 74.6651 16.908Z" fill="#2F234F"/>
<path d="M79.6201 16.7152H81.7293V13.0256C81.7293 12.2414 82.1175 11.6886 82.7774 11.6886C83.4115 11.6886 83.7091 12.1 83.7091 12.8071V16.7152H85.8183V13.0256C85.8183 12.2414 86.1936 11.6886 86.8665 11.6886C87.5005 11.6886 87.7981 12.1 87.7981 12.8071V16.7152H89.9074V12.4343C89.9074 10.9559 89.1568 9.94025 87.6558 9.94025C86.8018 9.94025 86.0901 10.3002 85.5725 11.0973H85.5466C85.2101 10.3902 84.5502 9.94025 83.6832 9.94025C82.7257 9.94025 82.0916 10.3902 81.6775 11.0716H81.6387V10.1331H79.6201V16.7152Z" fill="#2F234F"/>
<path fill-rule="evenodd" clip-rule="evenodd" d="M4.7477 3.37619C3.97633 3.91204 3.27881 4.54559 2.6733 5.25877C5.1477 5.03054 8.29133 5.40321 11.9411 7.21621C15.8385 9.15218 18.9769 9.21763 21.161 8.79907C20.9628 8.20294 20.7133 7.63 20.4178 7.08535C17.9175 7.34734 14.7122 7.00055 10.9766 5.14499C8.60448 3.96665 6.51348 3.48126 4.7477 3.37619ZM18.9572 5.02C16.9828 2.82829 14.1134 1.44897 10.9197 1.44897C9.98178 1.44897 9.07178 1.56795 8.20426 1.79152C9.37921 2.11002 10.6274 2.57599 11.9411 3.22857C14.676 4.58713 17.0373 5.02456 18.9572 5.02ZM21.628 10.8916C18.9893 11.4092 15.3456 11.3029 10.9766 9.13262C6.89209 7.10367 3.64117 7.12922 1.44863 7.61329C1.33546 7.63825 1.22495 7.6645 1.11711 7.69182C0.830055 8.31205 0.600917 8.96427 0.436508 9.64155C0.612106 9.59495 0.793559 9.55065 0.980774 9.5093C3.6407 8.92206 7.39896 8.94756 11.9411 11.2038C16.0256 13.2328 19.2765 13.2073 21.4691 12.7232C21.5442 12.7066 21.6182 12.6895 21.691 12.6718C21.699 12.5029 21.703 12.333 21.703 12.1621C21.703 11.7322 21.6775 11.3082 21.628 10.8916ZM21.3389 14.9327C18.7259 15.3865 15.1882 15.2123 10.9766 13.1203C6.89209 11.0913 3.64117 11.1169 1.44863 11.6009C0.961951 11.7083 0.524142 11.8392 0.137932 11.9773C0.136879 12.0388 0.136353 12.1004 0.136353 12.1621C0.136353 18.0788 4.96421 22.8752 10.9197 22.8752C15.9108 22.8752 20.1099 19.5064 21.3389 14.9327Z" fill="#7F57F1"/>
</g>
<defs>
<clipPath id="clip0_10_580">
<rect width="90.0408" height="24" fill="white" transform="translate(0.081604 -6.10352e-05)"/>
</clipPath>
</defs>
</svg>
