<svg width="91" height="24" viewBox="0 0 91 24" fill="none" xmlns="http://www.w3.org/2000/svg">
<path d="M14.6545 17.6777L2.94914 9.65597C1.76296 8.8431 2.16618 7.15058 3.64533 6.75257L16.086 3.39803C16.3495 3.30355 16.6319 3.27289 16.9098 3.30857C17.1876 3.34426 17.4529 3.44526 17.6836 3.60321C17.9143 3.76115 18.1037 3.97148 18.2362 4.21674C18.3686 4.46199 18.4403 4.7351 18.4453 5.01339L17.708 16.389C17.6206 17.7393 15.8406 18.4906 14.6545 17.6777Z" fill="#E9327C"/>
<path d="M10.9419 19.6581L4.04598 6.26C3.88834 5.9535 3.81898 5.60969 3.84553 5.2665C3.87208 4.92331 3.99351 4.59407 4.19644 4.3151C4.39937 4.03612 4.67591 3.81824 4.99556 3.68549C5.31521 3.55273 5.66555 3.51026 6.00796 3.56276L18.7879 5.52233C19.0821 5.56745 19.3613 5.68131 19.6027 5.85455C19.844 6.02779 20.0404 6.25546 20.176 6.51884C20.3114 6.78222 20.3821 7.07378 20.382 7.36956C20.3819 7.66534 20.3112 7.95689 20.1757 8.22022L14.2885 19.6587C14.1304 19.9643 13.8905 20.2208 13.5953 20.3998C13.3 20.5788 12.9609 20.6734 12.615 20.6734C12.2691 20.6733 11.93 20.5785 11.6348 20.3994C11.3396 20.2203 11.0999 19.9638 10.9419 19.6581Z" fill="#1DACE3"/>
<path d="M18.414 5.46454L12.0433 4.48767L4.22153 6.59763L7.34359 12.6656L14.6545 17.6777C14.8158 17.787 14.9932 17.8708 15.1804 17.9259L17.9573 12.5308L18.414 5.46454Z" fill="#001A49"/>
<path d="M50.6832 7.03067C50.6832 6.79541 50.7534 6.56544 50.885 6.36983C51.0166 6.17422 51.2036 6.02176 51.4223 5.93173C51.6411 5.8417 51.8818 5.81815 52.1141 5.86404C52.3463 5.90994 52.5597 6.02323 52.7271 6.18958C52.8946 6.35593 53.0086 6.56788 53.0548 6.79861C53.101 7.02936 53.0773 7.26852 52.9866 7.48587C52.896 7.70322 52.7426 7.88899 52.5457 8.01969C52.3488 8.1504 52.1173 8.22016 51.8805 8.22016C51.5639 8.21695 51.2613 8.0906 51.0375 7.86822C50.8137 7.64584 50.6864 7.34515 50.6832 7.03067ZM50.8829 8.8016H52.8788V15.4096H50.8829V8.8016Z" fill="#001A49"/>
<path d="M61.4978 12.1056C61.521 12.5424 61.457 12.9794 61.3096 13.3915C61.1622 13.8036 60.9342 14.1828 60.6388 14.5071C60.3434 14.8313 59.9864 15.0944 59.5882 15.2811C59.1901 15.4678 58.7587 15.5745 58.319 15.595C57.9491 15.6149 57.5793 15.553 57.2365 15.4135C56.8937 15.274 56.5863 15.0606 56.3368 14.7886V18.053H54.3415V8.80162H56.3368V9.42261C56.5864 9.15068 56.8937 8.93735 57.2366 8.79799C57.5794 8.65865 57.9492 8.59677 58.319 8.61686C58.7587 8.63727 59.19 8.74387 59.5882 8.93048C59.9863 9.11717 60.3433 9.38015 60.6388 9.70439C60.9342 10.0286 61.1622 10.4076 61.3096 10.8198C61.457 11.2319 61.521 11.6688 61.4978 12.1056ZM59.5026 12.1056C59.4947 11.7962 59.3952 11.496 59.2165 11.2425C59.0378 10.989 58.7878 10.7935 58.4978 10.6806C58.2078 10.5675 57.8907 10.542 57.5862 10.6072C57.2817 10.6723 57.0032 10.8252 56.7857 11.0468C56.5683 11.2684 56.4214 11.5488 56.3635 11.8529C56.3057 12.1569 56.3394 12.4713 56.4604 12.7564C56.5814 13.0416 56.7844 13.2849 57.044 13.456C57.3036 13.6272 57.6082 13.7184 57.9197 13.7184C58.1336 13.728 58.3471 13.6924 58.5462 13.6143C58.7454 13.536 58.9256 13.4168 59.0751 13.2646C59.2245 13.1122 59.3399 12.9303 59.4136 12.7305C59.4873 12.5308 59.5176 12.3178 59.5026 12.1056Z" fill="#001A49"/>
<path d="M67.6566 13.4261C67.6566 14.9461 66.3262 15.5937 64.8896 15.5937C64.3092 15.6459 63.7263 15.5238 63.2165 15.2434C62.7067 14.9629 62.2933 14.5369 62.0298 14.0205L63.7588 13.043C63.8292 13.2817 63.9798 13.4892 64.1856 13.6308C64.3914 13.7723 64.6399 13.8394 64.8896 13.8208C65.3685 13.8208 65.6073 13.675 65.6073 13.4112C65.6073 12.6838 62.3351 13.0676 62.3351 10.7807C62.3351 9.34032 63.5585 8.61367 64.945 8.61367C65.4651 8.59745 65.98 8.72005 66.4358 8.9687C66.8926 9.21736 67.273 9.58295 67.5385 10.0274L65.8363 10.9395C65.7618 10.766 65.6376 10.6182 65.4791 10.5144C65.3206 10.4107 65.1348 10.3556 64.945 10.3561C64.5992 10.3561 64.3865 10.4857 64.3865 10.7262C64.3845 11.4846 67.6566 10.9823 67.6566 13.4261Z" fill="#001A49"/>
<path d="M74.9493 8.80164V15.4096H72.954V14.7873C72.7237 15.0614 72.4307 15.2774 72.0999 15.4176C71.7698 15.5578 71.4103 15.6181 71.0514 15.5937C69.708 15.5937 68.5642 14.6421 68.5642 12.8576V8.80164H70.5595V12.5685C70.5425 12.726 70.5608 12.8852 70.6123 13.0351C70.6639 13.185 70.7474 13.3219 70.8576 13.4364C70.9679 13.5509 71.1017 13.6401 71.2498 13.6978C71.3985 13.7557 71.5577 13.7806 71.7169 13.7709C72.4484 13.7709 72.9566 13.3483 72.9566 12.4096V8.80164H74.9493Z" fill="#001A49"/>
<path d="M86.3857 11.3517V15.4096H84.3904V11.5241C84.3904 10.8636 84.0707 10.4403 83.4326 10.4403C82.7671 10.4403 82.3952 10.9031 82.3952 11.6829V15.4096H80.3993V11.5241C80.3993 10.8636 80.0802 10.4403 79.4414 10.4403C78.7766 10.4403 78.404 10.9031 78.404 11.6829V15.4096H76.4088V8.80159H78.4073V9.40703C78.6141 9.13743 78.8855 8.92365 79.1968 8.78512C79.508 8.64666 79.8499 8.58791 80.1898 8.61426C80.5311 8.59767 80.8716 8.66926 81.177 8.82207C81.4824 8.97486 81.7427 9.20361 81.9326 9.48611C82.1537 9.19058 82.4467 8.95554 82.784 8.80308C83.1214 8.65058 83.4926 8.58563 83.8619 8.61426C85.3887 8.61685 86.3857 9.70002 86.3857 11.3517Z" fill="#001A49"/>
<path d="M88.0763 8.76073C88.8945 8.76073 89.5574 8.10194 89.5574 7.28927C89.5574 6.47661 88.8945 5.81781 88.0763 5.81781C87.2581 5.81781 86.5952 6.47661 86.5952 7.28927C86.5952 8.10194 87.2581 8.76073 88.0763 8.76073Z" fill="#001A49"/>
<path d="M23.4414 5.76208H25.4373V15.4096H23.4414V5.76208ZM26.5674 12.1056C26.5652 11.4128 26.7699 10.7349 27.1558 10.1579C27.5416 9.58079 28.0911 9.13041 28.7347 8.86379C29.3783 8.59717 30.087 8.52627 30.7713 8.66009C31.4555 8.79391 32.0843 9.12639 32.5782 9.61553C33.072 10.1046 33.4087 10.7283 33.5455 11.4076C33.6823 12.0869 33.6132 12.7913 33.3469 13.4315C33.0806 14.0718 32.629 14.6192 32.0493 15.0043C31.4697 15.3894 30.7881 15.595 30.0907 15.595C29.6276 15.5998 29.1681 15.5131 28.7391 15.3396C28.3102 15.1661 27.9203 14.9094 27.5923 14.5846C27.2642 14.2597 27.0046 13.8732 26.8287 13.4476C26.6527 13.0219 26.5639 12.5657 26.5674 12.1056ZM31.6227 12.1056C31.6149 11.8067 31.5186 11.5168 31.3457 11.2721C31.1729 11.0274 30.9313 10.8387 30.6512 10.7297C30.3709 10.6207 30.0647 10.5962 29.7705 10.6592C29.4764 10.7222 29.2075 10.8701 28.9975 11.0841C28.7875 11.2983 28.6457 11.5691 28.5898 11.8628C28.5339 12.1566 28.5664 12.4601 28.6833 12.7356C28.8002 13.011 28.9962 13.2462 29.2469 13.4115C29.4976 13.5769 29.7918 13.6651 30.0927 13.6652C30.2987 13.6711 30.5038 13.6344 30.6948 13.5576C30.8859 13.4808 31.0589 13.3655 31.2029 13.2189C31.3469 13.0724 31.4588 12.8979 31.5315 12.7063C31.6042 12.5146 31.6361 12.3101 31.6253 12.1056H31.6227ZM41.5722 8.79968V15.0777C41.5722 17.2979 39.8295 18.2358 38.0606 18.2358C37.438 18.2825 36.8145 18.158 36.2583 17.8759C35.7022 17.5938 35.235 17.165 34.9079 16.6367L36.6102 15.6585C36.7476 15.9343 36.9665 16.1618 37.2376 16.3107C37.5087 16.4595 37.819 16.5226 38.1272 16.4915C38.3239 16.5181 38.5241 16.5006 38.713 16.4401C38.902 16.3797 39.0748 16.2779 39.2189 16.1422C39.3629 16.0065 39.4744 15.8404 39.5452 15.6561C39.616 15.4719 39.6442 15.2742 39.6278 15.0777V14.4697C39.3941 14.7536 39.0967 14.9792 38.7594 15.1283C38.4221 15.2775 38.0543 15.3461 37.6854 15.3286C36.8075 15.3014 35.9747 14.9359 35.3633 14.3093C34.7519 13.6827 34.41 12.8444 34.41 11.9718C34.41 11.0991 34.7519 10.2607 35.3633 9.63414C35.9747 9.00757 36.8075 8.64202 37.6854 8.61491C38.0543 8.59738 38.4221 8.66594 38.7594 8.81511C39.0967 8.96427 39.3941 9.18985 39.6278 9.47383V8.79968H41.5722ZM39.6305 11.9714C39.6436 11.6522 39.5604 11.3365 39.3915 11.0647C39.2225 10.7929 38.9756 10.5775 38.6825 10.4462C38.3894 10.315 38.0634 10.2738 37.7466 10.3281C37.4297 10.3823 37.1365 10.5295 36.9044 10.7506C36.6724 10.9718 36.5123 11.2568 36.4447 11.5691C36.377 11.8814 36.405 12.2066 36.5249 12.503C36.6448 12.7994 36.8512 13.0534 37.1175 13.2323C37.3839 13.4112 37.698 13.5069 38.0195 13.5071C38.2291 13.5217 38.4396 13.4925 38.6372 13.4216C38.8348 13.3506 39.0153 13.2393 39.1671 13.0948C39.3188 12.9504 39.4384 12.7759 39.5182 12.5828C39.598 12.3897 39.6363 12.182 39.6305 11.9734V11.9714ZM42.7023 12.1011C42.7001 11.4083 42.9049 10.7304 43.2907 10.1534C43.6765 9.57625 44.226 9.12587 44.8696 8.85925C45.5132 8.59263 46.222 8.52173 46.9062 8.65555C47.5904 8.78938 48.2192 9.12185 48.7131 9.611C49.2069 10.1001 49.5436 10.7237 49.6804 11.4031C49.8173 12.0824 49.7482 12.7868 49.4818 13.427C49.2155 14.0673 48.7639 14.6146 48.1843 14.9997C47.6046 15.3848 46.923 15.5904 46.2256 15.5904C45.7629 15.5953 45.3038 15.5086 44.8751 15.3354C44.4465 15.1623 44.0567 14.906 43.7288 14.5816C43.4008 14.2573 43.1412 13.8713 42.965 13.4461C42.7887 13.021 42.6994 12.5653 42.7023 12.1056V12.1011ZM47.7576 12.1011C47.7499 11.8021 47.6536 11.5119 47.4808 11.2669C47.308 11.022 47.0663 10.8332 46.786 10.7241C46.5056 10.6149 46.1991 10.5903 45.9048 10.6534C45.6105 10.7164 45.3414 10.8643 45.1313 11.0785C44.9211 11.2927 44.7792 11.5638 44.7234 11.8577C44.6675 12.1516 44.7001 12.4554 44.8171 12.731C44.9341 13.0066 45.1303 13.2418 45.3812 13.4072C45.6321 13.5725 45.9265 13.6607 46.2276 13.6607C46.433 13.6661 46.6373 13.6293 46.8278 13.5526C47.0182 13.476 47.1907 13.361 47.3344 13.215C47.478 13.069 47.5897 12.8951 47.6626 12.7042C47.7354 12.5133 47.7678 12.3095 47.7576 12.1056V12.1011Z" fill="#001A49"/>
</svg>
